<svg width="600" height="565" viewBox="0 0 600 565" fill="none" xmlns="http://www.w3.org/2000/svg">
<g clip-path="url(#clip0)">
<path d="M435.603 320.606V476.678L461.709 519.224L463.696 522.46H566.704L568.786 320.606H435.603Z" fill="#E6E6E6"/>
<path opacity="0.1" d="M435.603 320.606V476.678L461.709 519.224L463.311 320.606H435.603Z" fill="black"/>
<path d="M186.926 316.443V472.516L160.82 515.062L158.833 518.298H55.8249L53.7436 316.443H186.926Z" fill="#E6E6E6"/>
<path opacity="0.1" d="M186.926 316.443V472.517L160.82 515.062L159.218 316.443H186.926Z" fill="black"/>
<path d="M600 313.322V322.686H40.2172V309.16L92.2414 282.107H554.219L600 313.322Z" fill="#E6E6E6"/>
<path opacity="0.1" d="M600 313.322V322.686H40.2172V309.16L600 313.322Z" fill="black"/>
<path d="M120.335 360.144H95.363L84.9581 352.86H131.78L120.335 360.144Z" fill="#3F3D56"/>
<path d="M120.335 390.318H95.363L84.9581 383.035H131.78L120.335 390.318Z" fill="#3F3D56"/>
<path d="M120.335 432.978H95.363L84.9581 425.694H131.78L120.335 432.978Z" fill="#3F3D56"/>
<path d="M120.335 475.638H95.363L84.9581 468.355H131.78L120.335 475.638Z" fill="#3F3D56"/>
<path d="M502.194 364.305H527.166L537.571 357.022H490.749L502.194 364.305Z" fill="#3F3D56"/>
<path d="M502.194 394.48H527.166L537.571 387.196H490.749L502.194 394.48Z" fill="#3F3D56"/>
<path d="M502.194 437.14H527.166L537.571 429.857H490.749L502.194 437.14Z" fill="#3F3D56"/>
<path d="M502.194 479.8H527.166L537.571 472.517H490.749L502.194 479.8Z" fill="#3F3D56"/>
<path d="M519.199 101.624H308.972C307.928 101.624 306.894 101.829 305.929 102.229C304.964 102.628 304.088 103.214 303.35 103.952C302.611 104.691 302.026 105.567 301.626 106.532C301.227 107.497 301.021 108.53 301.021 109.575V251.189C301.021 252.233 301.227 253.267 301.626 254.232C302.026 255.197 302.611 256.073 303.35 256.811C304.088 257.55 304.964 258.135 305.929 258.535C306.894 258.934 307.928 259.14 308.972 259.14H388.776L385.786 278.229C385.786 278.229 368.7 287.306 380.714 287.573C392.728 287.84 449.326 287.573 449.326 287.573C449.326 287.573 460.273 287.573 442.919 277.962L440.107 259.14H519.199C520.244 259.14 521.277 258.934 522.242 258.535C523.207 258.135 524.083 257.55 524.822 256.811C525.56 256.073 526.146 255.197 526.545 254.232C526.945 253.267 527.15 252.233 527.15 251.189V109.575C527.15 108.53 526.945 107.497 526.545 106.532C526.146 105.567 525.56 104.691 524.822 103.952C524.083 103.214 523.207 102.628 522.242 102.229C521.277 101.829 520.244 101.624 519.199 101.624V101.624Z" fill="#3F3D56"/>
<path d="M519.541 110.034H308.63V228.037H519.541V110.034Z" fill="#F2F2F2"/>
<path d="M414.086 107.631C414.823 107.631 415.42 107.033 415.42 106.296C415.42 105.559 414.823 104.961 414.086 104.961C413.348 104.961 412.751 105.559 412.751 106.296C412.751 107.033 413.348 107.631 414.086 107.631Z" fill="#F2F2F2"/>
<path d="M414.086 253.4C416.887 253.4 419.158 251.129 419.158 248.327C419.158 245.526 416.887 243.255 414.086 243.255C411.284 243.255 409.013 245.526 409.013 248.327C409.013 251.129 411.284 253.4 414.086 253.4Z" fill="#F2F2F2"/>
<path d="M406.181 301.989V304.66H262.548V302.523L262.746 301.989L266.286 292.378H403.244L406.181 301.989Z" fill="#3F3D56"/>
<path d="M461.456 299.376C461.194 300.494 460.206 301.674 457.974 302.79C449.965 306.795 433.68 301.722 433.68 301.722C433.68 301.722 421.132 299.587 421.132 293.98C421.484 293.739 421.851 293.52 422.232 293.326C425.599 291.545 436.764 287.149 456.561 293.512C458.019 293.97 459.322 294.824 460.324 295.978C460.767 296.415 461.101 296.95 461.298 297.541C461.495 298.131 461.549 298.76 461.456 299.376Z" fill="#3F3D56"/>
<path opacity="0.1" d="M461.456 299.376C451.652 303.132 442.914 303.412 433.947 297.184C430.555 294.677 426.449 293.324 422.232 293.326C425.599 291.545 436.764 287.149 456.561 293.512C458.019 293.97 459.322 294.824 460.324 295.978C460.767 296.415 461.101 296.95 461.298 297.541C461.495 298.131 461.549 298.76 461.456 299.376Z" fill="black"/>
<path d="M449.164 297.184C451.081 297.184 452.635 296.706 452.635 296.116C452.635 295.526 451.081 295.048 449.164 295.048C447.247 295.048 445.693 295.526 445.693 296.116C445.693 296.706 447.247 297.184 449.164 297.184Z" fill="#F2F2F2"/>
<path opacity="0.1" d="M406.181 301.989V304.66H262.548V302.523L262.746 301.989H406.181Z" fill="black"/>
<path d="M79.862 0.000128218C78.4043 -0.119557 76.9446 0.206522 75.6764 0.935155C74.4311 1.78793 73.6463 3.28189 72.8451 4.67211C69.7821 10.051 65.6353 14.7351 60.6676 18.4277C57.0492 21.0784 52.4489 24.3836 53.068 29.271C53.3945 30.885 53.9908 32.4324 54.8317 33.8482C58.1697 40.5865 67.2787 45.7938 66.3827 53.4828C69.6991 47.9307 65.2632 45.1854 68.5796 39.6334C70.159 36.9894 72.9026 34.0048 75.2871 35.6652C76.0855 36.2212 76.6098 37.2184 77.4411 37.7062C79.4247 38.8702 81.535 36.6449 83.2909 35.0686C89.3457 29.6332 97.9563 31.0572 105.491 32.7507C109.048 33.5502 112.955 34.5992 115.058 37.9989C117.822 42.4688 112.431 47.2963 111.069 52.3499C110.958 52.7805 110.952 53.2317 111.054 53.6648C111.155 54.0979 111.359 54.5 111.65 54.8368C111.94 55.1736 112.308 55.4351 112.721 55.5988C113.135 55.7625 113.582 55.8237 114.024 55.777C116.285 55.554 118.963 55.3712 119.097 54.3791C121.941 54.4803 125.427 54.1582 126.645 51.1964C127.018 50.0245 127.215 48.804 127.23 47.5744C127.677 42.5992 129.788 38.0603 131.187 33.3251C132.586 28.5898 133.194 23.0404 130.834 18.8421C129.991 17.4453 128.949 16.1789 127.741 15.0832C114.344 2.11886 96.731 -0.0191156 79.862 0.000128218Z" fill="#2F2E41"/>
<path d="M69.2962 63.1944C69.2962 63.1944 72.2097 87.4736 61.5269 89.4159C50.844 91.3583 71.2385 124.378 71.2385 124.378L119.797 130.205L108.143 91.3583C108.143 91.3583 100.374 88.4448 105.229 69.0214C110.085 49.5981 69.2962 63.1944 69.2962 63.1944Z" fill="#FFB8B8"/>
<path d="M39.6756 480.31L43.5606 533.725H63.9544L58.1281 480.31H39.6756Z" fill="#FFB8B8"/>
<path d="M189.235 379.309L192.148 423.982L214.486 414.271L205.745 377.367L189.235 379.309Z" fill="#FFB8B8"/>
<path d="M25.1082 276.365C25.1082 276.365 26.0793 332.693 31.9063 351.145C37.7334 369.597 36.7622 370.569 35.791 373.482C34.8199 376.396 33.8487 374.453 33.8487 379.309C33.8487 384.165 31.9063 460.887 33.8487 467.685C35.791 474.483 28.0217 486.137 33.8487 487.109C39.6757 488.08 66.8683 487.109 67.8395 481.282C68.8107 475.455 60.0702 473.512 63.9549 469.628C67.8395 465.743 73.6665 386.107 73.6665 386.107L87.2628 330.751L112.513 301.616H165.927L182.437 365.713C182.437 365.713 175.639 384.165 180.495 384.165C185.351 384.165 214.486 389.992 214.486 368.626C214.486 347.261 204.774 284.135 202.832 282.192C200.889 280.25 203.803 273.452 200.889 270.538C197.976 267.625 163.985 247.23 151.36 243.346C138.735 239.461 121.024 234.838 121.024 234.838L25.1082 276.365Z" fill="#2F2E41"/>
<path d="M214.486 406.502C214.486 406.502 199.918 401.646 193.12 416.213C186.322 430.781 189.235 434.666 189.235 434.666C189.235 434.666 211.572 442.435 215.457 438.55C217.147 436.86 222.514 436.273 228.038 436.149C236.452 435.96 238.69 424.057 230.744 421.285C230.507 421.202 230.267 421.13 230.024 421.069C222.255 419.127 214.486 406.502 214.486 406.502Z" fill="#2F2E41"/>
<path d="M91.1474 79.2187C107.238 79.2187 120.282 66.1745 120.282 50.0837C120.282 33.9929 107.238 20.9487 91.1474 20.9487C75.0566 20.9487 62.0125 33.9929 62.0125 50.0837C62.0125 66.1745 75.0566 79.2187 91.1474 79.2187Z" fill="#FFB8B8"/>
<path d="M53.2719 101.555C53.2719 101.555 100.859 111.267 112.513 95.7285C124.167 80.1898 129.023 139.431 129.023 139.431L134.85 201.586L126.109 235.576C126.109 235.576 80.4646 272.481 65.8971 275.394C51.3296 278.308 28.9928 280.25 28.9928 280.25C28.9928 280.25 35.791 172.451 35.791 170.508C35.791 168.566 53.2719 101.555 53.2719 101.555Z" fill="#6C63FF"/>
<path d="M67.7443 83.3416C67.7443 83.3416 57.1566 77.2764 54.2431 83.1034C51.3296 88.9304 24.137 103.498 21.2235 103.498C18.31 103.498 27.0505 184.105 23.1658 193.816C19.2811 203.528 0.828965 274.423 11.5118 280.25C22.1946 286.077 14.4253 274.423 25.1081 288.991C35.791 303.558 88.2339 303.558 91.1474 297.731C94.0609 291.904 67.8394 248.202 72.6953 207.413C77.5511 166.624 85.3204 110.296 78.5223 102.527C71.7241 94.7574 67.7443 83.3416 67.7443 83.3416Z" fill="#2F2E41"/>
<path d="M102.801 89.9015L104.154 85.2462C104.154 85.2462 144.562 98.642 146.504 107.383C148.446 116.123 147.475 177.307 140.677 182.162C133.879 187.018 124.167 194.787 130.965 206.441C137.763 218.095 145.533 230.721 151.36 231.692C157.187 232.663 167.87 239.461 164.956 246.259C162.043 253.057 127.081 240.432 127.081 240.432C127.081 240.432 103.773 222.951 104.744 195.759C105.715 168.566 102.801 89.9015 102.801 89.9015Z" fill="#2F2E41"/>
<path d="M136.792 204.499L113.484 248.202C113.484 248.202 79.4934 283.164 98.9168 287.048C118.34 290.933 129.023 255 129.023 255L154.273 219.067L136.792 204.499Z" fill="#FFB8B8"/>
<path d="M81.2813 7.62321C80.107 7.5362 78.9307 7.76435 77.874 8.28409C76.9186 8.98185 76.1312 9.88424 75.5693 10.9253C72.9789 14.8218 69.6023 18.1335 65.6562 20.6477C62.7107 22.5212 58.9659 24.8573 59.4698 28.3116C59.7434 29.4698 60.2303 30.5669 60.9056 31.5468C63.6323 36.3575 64.7177 41.9255 63.9978 47.4082L72.097 35.6358C73.3827 33.767 75.6161 31.6575 77.5572 32.8311C78.2071 33.224 78.6339 33.9288 79.3106 34.2736C80.9254 35.0963 82.6433 33.5235 84.0726 32.4094C89.0015 28.5677 96.0108 29.5742 102.144 30.7711C105.04 31.3362 108.22 32.0776 109.932 34.4805C112.777 38.4736 109.806 44.2434 111.467 48.8564C111.931 48.5311 112.326 48.1157 112.627 47.635C112.928 47.1543 113.13 46.618 113.22 46.0579C115.536 46.1295 118.373 45.9018 119.365 43.8084C119.667 42.988 119.827 42.1224 119.84 41.2484C120.205 37.7319 121.924 34.5239 123.062 31.177C124.201 27.8302 124.696 23.9079 122.774 20.9406C122.071 19.9352 121.223 19.0398 120.257 18.2838C109.351 9.12071 95.0134 7.60961 81.2813 7.62321Z" fill="#2F2E41"/>
<path d="M136.792 103.498L145.841 105.9C145.841 105.9 166.898 159.825 162.043 196.73C157.187 233.634 154.273 225.865 154.273 225.865C154.273 225.865 146.504 208.384 129.023 212.268L136.792 103.498Z" fill="#2F2E41"/>
<path d="M41.0211 526.665C38.6792 529.848 39.1488 534.397 37.0743 537.76C35.276 540.675 31.8871 542.204 29.6379 544.787C28.9202 545.645 28.2804 546.565 27.7261 547.537C25.6396 551.032 23.9437 555.511 25.9986 559.024C27.6516 561.851 31.1262 562.956 34.3128 563.708C38.3405 564.66 42.5253 565.422 46.5995 564.694C50.6737 563.967 54.6554 561.473 56.1081 557.597C56.3936 556.623 56.733 555.665 57.1248 554.728C59.333 550.381 66.2595 550.334 68.5195 546.013C70.101 542.99 68.6472 539.335 67.1939 536.247L62.7554 526.818C61.2824 523.688 55.3112 525.488 52.1983 524.738C48.1384 523.76 43.9418 522.683 41.0211 526.665Z" fill="#2F2E41"/>
<path d="M8.5983 223.922L49.3873 287.048C49.3873 287.048 74.6376 319.097 82.4069 304.529C90.1763 289.962 55.2143 265.683 55.2143 265.683L28.9928 217.124L8.5983 223.922Z" fill="#FFB8B8"/>
<path d="M28.9928 105.44L21.2235 103.498C21.2235 103.498 5.6848 108.354 1.80014 128.748C-2.08452 149.143 0.828965 230.721 5.6848 231.692C10.5406 232.663 29.6677 217.487 32.7293 220.705C35.791 223.922 26.0793 207.413 28.9928 198.672C31.9062 189.932 28.9928 105.44 28.9928 105.44Z" fill="#2F2E41"/>
<path d="M394.123 148.79H369.022V154.833H394.123V148.79Z" fill="#6C63FF"/>
<path d="M481.046 148.79H472.215V154.833H481.046V148.79Z" fill="#6C63FF"/>
<path d="M498.71 148.79H489.878V154.833H498.71V148.79Z" fill="#6C63FF"/>
<path d="M462.918 148.79H402.955V154.833H462.918V148.79Z" fill="#6C63FF"/>
<path d="M362.515 187.836H337.414V193.879H362.515V187.836Z" fill="#6C63FF"/>
<path d="M449.438 187.836H440.606V193.879H449.438V187.836Z" fill="#6C63FF"/>
<path d="M467.101 187.836H458.27V193.879H467.101V187.836Z" fill="#6C63FF"/>
<path d="M431.309 187.836H371.346V193.879H431.309V187.836Z" fill="#6C63FF"/>
<path d="M466.172 162.27H441.071V168.313H466.172V162.27Z" fill="#6C63FF"/>
<path d="M500.104 162.27H475.004V168.313H500.104V162.27Z" fill="#6C63FF"/>
<path d="M346.246 162.27H337.414V168.313H346.246V162.27Z" fill="#6C63FF"/>
<path d="M363.909 162.27H355.077V168.313H363.909V162.27Z" fill="#6C63FF"/>
<path d="M432.704 162.27H372.741V168.313H432.704V162.27Z" fill="#6C63FF"/>
<path d="M414.111 175.285H389.01V181.328H414.111V175.285Z" fill="#6C63FF"/>
<path d="M380.178 175.285H355.077V181.328H380.178V175.285Z" fill="#6C63FF"/>
<path d="M346.246 175.285H337.414V181.328H346.246V175.285Z" fill="#6C63FF"/>
<path d="M500.104 175.285H491.273V181.328H500.104V175.285Z" fill="#6C63FF"/>
<path d="M482.441 175.285H422.478V181.328H482.441V175.285Z" fill="#6C63FF"/>
</g>
<defs>
<clipPath id="clip0">
<rect width="600" height="564.984" fill="white"/>
</clipPath>
</defs>
</svg>
