<svg width="700" height="532" viewBox="0 0 700 532" fill="none" xmlns="http://www.w3.org/2000/svg">
<path d="M693.579 0H252.57C250.89 0.00205925 249.278 0.740227 248.09 2.05254C246.902 3.36484 246.232 5.14412 246.231 7V337C246.232 338.856 246.902 340.635 248.09 341.947C249.278 343.26 250.89 343.998 252.57 344H693.579C695.259 343.998 696.871 343.26 698.059 341.947C699.248 340.635 699.916 338.856 699.918 337V7C699.916 5.14412 699.248 3.36484 698.059 2.05254C696.871 0.740227 695.259 0.00205925 693.579 0ZM698.107 337C698.107 338.326 697.629 339.597 696.78 340.535C695.931 341.472 694.78 341.999 693.579 342H252.57C251.37 341.999 250.218 341.472 249.368 340.535C248.52 339.597 248.043 338.326 248.042 337V7C248.043 5.67408 248.52 4.40262 249.368 3.46506C250.218 2.52749 251.37 2.00053 252.57 2H693.579C694.78 2.00053 695.931 2.52749 696.78 3.46506C697.629 4.40262 698.107 5.67408 698.107 7V337Z" fill="#3F3D56"/>
<path d="M699.012 28.04H247.136V30.04H699.012V28.04Z" fill="#3F3D56"/>
<path d="M262.531 21C265.532 21 267.964 18.3137 267.964 15C267.964 11.6863 265.532 9 262.531 9C259.531 9 257.097 11.6863 257.097 15C257.097 18.3137 259.531 21 262.531 21Z" fill="#3F3D56"/>
<path d="M278.152 21C281.153 21 283.585 18.3137 283.585 15C283.585 11.6863 281.153 9 278.152 9C275.152 9 272.718 11.6863 272.718 15C272.718 18.3137 275.152 21 278.152 21Z" fill="#3F3D56"/>
<path d="M293.773 21C296.774 21 299.206 18.3137 299.206 15C299.206 11.6863 296.774 9 293.773 9C290.773 9 288.339 11.6863 288.339 15C288.339 18.3137 290.773 21 293.773 21Z" fill="#3F3D56"/>
<path d="M357.496 74.5H281.429C279.747 74.5 278.135 73.7625 276.946 72.4498C275.757 71.137 275.09 69.3565 275.09 67.5C275.09 65.6435 275.757 63.863 276.946 62.5503C278.135 61.2375 279.747 60.5 281.429 60.5H357.496C359.177 60.5 360.79 61.2375 361.978 62.5503C363.167 63.863 363.835 65.6435 363.835 67.5C363.835 69.3565 363.167 71.137 361.978 72.4498C360.79 73.7625 359.177 74.5 357.496 74.5Z" fill="#CCCCCC"/>
<path d="M461.636 108.5H281.429C279.747 108.5 278.135 107.762 276.946 106.45C275.757 105.137 275.09 103.357 275.09 101.5C275.09 99.6435 275.757 97.863 276.946 96.5502C278.135 95.2375 279.747 94.5 281.429 94.5H461.636C463.317 94.5 464.929 95.2375 466.118 96.5502C467.307 97.863 467.975 99.6435 467.975 101.5C467.975 103.357 467.307 105.137 466.118 106.45C464.929 107.762 463.317 108.5 461.636 108.5Z" fill="#CCCCCC"/>
<path d="M519.79 122.023C511.302 135.69 506.354 151.658 505.481 168.203C504.608 184.748 507.843 201.242 514.837 215.906C521.831 230.569 532.319 242.845 545.168 251.409C558.017 259.973 572.739 264.499 587.747 264.5V185.06L519.79 122.023Z" fill="#6C63FF"/>
<path d="M587.747 82.5C574.364 82.4906 561.18 86.0851 549.339 92.972C537.497 99.859 527.355 109.831 519.79 122.023L587.747 185.06V82.5Z" fill="#CCCCCC"/>
<path d="M587.747 265.5H586.842V81.5H587.747C609.843 81.5 631.034 91.1928 646.658 108.446C662.282 125.7 671.059 149.1 671.059 173.5C671.059 197.9 662.282 221.3 646.658 238.554C631.034 255.807 609.843 265.5 587.747 265.5ZM588.653 83.5054V263.495C610.11 263.231 630.608 253.634 645.696 236.785C660.786 219.936 669.248 197.196 669.248 173.5C669.248 149.804 660.786 127.064 645.696 110.215C630.608 93.3663 610.11 83.7688 588.653 83.5054Z" fill="#3F3D56"/>
<path d="M333.952 303H318.557C317.476 302.999 316.441 302.524 315.676 301.68C314.912 300.837 314.483 299.693 314.482 298.5V249.5C314.483 248.307 314.912 247.163 315.676 246.32C316.441 245.476 317.476 245.001 318.557 245H333.952C335.032 245.001 336.067 245.476 336.831 246.32C337.596 247.163 338.025 248.307 338.027 249.5V298.5C338.025 299.693 337.596 300.837 336.831 301.68C336.067 302.524 335.032 302.999 333.952 303Z" fill="#CCCCCC"/>
<path d="M379.23 303H363.835C362.754 302.999 361.719 302.524 360.955 301.68C360.19 300.837 359.761 299.693 359.76 298.5V226.5C359.761 225.307 360.19 224.163 360.955 223.32C361.719 222.476 362.754 222.001 363.835 222H379.23C380.31 222.001 381.345 222.476 382.109 223.32C382.874 224.163 383.303 225.307 383.305 226.5V298.5C383.303 299.693 382.874 300.837 382.109 301.68C381.345 302.524 380.31 302.999 379.23 303Z" fill="#FF6584"/>
<path d="M424.508 303H409.113C408.032 302.999 406.997 302.524 406.233 301.68C405.468 300.837 405.039 299.693 405.038 298.5V206.5C405.039 205.307 405.468 204.163 406.233 203.32C406.997 202.476 408.032 202.001 409.113 202H424.508C425.588 202.001 426.623 202.476 427.388 203.32C428.152 204.163 428.581 205.307 428.583 206.5V298.5C428.581 299.693 428.152 300.837 427.388 301.68C426.623 302.524 425.588 302.999 424.508 303Z" fill="#6C63FF"/>
<path d="M333.952 303.5H318.557C317.356 303.498 316.205 302.971 315.357 302.034C314.507 301.097 314.03 299.826 314.029 298.5V188.5C314.03 187.174 314.507 185.903 315.357 184.966C316.205 184.029 317.356 183.502 318.557 183.5H333.952C335.152 183.502 336.302 184.029 337.151 184.966C338 185.903 338.478 187.174 338.479 188.5V298.5C338.478 299.826 338 301.097 337.151 302.034C336.302 302.971 335.152 303.498 333.952 303.5ZM318.557 185.5C317.836 185.501 317.146 185.817 316.636 186.38C316.127 186.942 315.84 187.705 315.84 188.5V298.5C315.84 299.295 316.127 300.058 316.636 300.62C317.146 301.183 317.836 301.499 318.557 301.5H333.952C334.672 301.499 335.362 301.183 335.871 300.62C336.38 300.058 336.667 299.295 336.668 298.5V188.5C336.667 187.705 336.38 186.942 335.871 186.38C335.362 185.817 334.672 185.501 333.952 185.5H318.557Z" fill="#3F3D56"/>
<path d="M379.23 303.5H363.835C362.634 303.498 361.483 302.971 360.635 302.034C359.785 301.097 359.308 299.826 359.307 298.5V188.5C359.308 187.174 359.785 185.903 360.635 184.966C361.483 184.029 362.634 183.502 363.835 183.5H379.23C380.43 183.502 381.581 184.029 382.429 184.966C383.279 185.903 383.756 187.174 383.758 188.5V298.5C383.756 299.826 383.279 301.097 382.429 302.034C381.581 302.971 380.43 303.498 379.23 303.5ZM363.835 185.5C363.114 185.501 362.424 185.817 361.914 186.38C361.406 186.942 361.118 187.705 361.118 188.5V298.5C361.118 299.295 361.406 300.058 361.914 300.62C362.424 301.183 363.114 301.499 363.835 301.5H379.23C379.95 301.499 380.64 301.183 381.15 300.62C381.658 300.058 381.946 299.295 381.946 298.5V188.5C381.946 187.705 381.658 186.942 381.15 186.38C380.64 185.817 379.95 185.501 379.23 185.5H363.835Z" fill="#3F3D56"/>
<path d="M424.508 303.5H409.113C407.913 303.498 406.762 302.971 405.913 302.034C405.064 301.097 404.586 299.826 404.586 298.5V188.5C404.586 187.174 405.064 185.903 405.913 184.966C406.762 184.029 407.913 183.502 409.113 183.5H424.508C425.708 183.502 426.859 184.029 427.707 184.966C428.557 185.903 429.034 187.174 429.036 188.5V298.5C429.034 299.826 428.557 301.097 427.707 302.034C426.859 302.971 425.708 303.498 424.508 303.5ZM409.113 185.5C408.393 185.501 407.702 185.817 407.193 186.38C406.684 186.942 406.397 187.705 406.397 188.5V298.5C406.397 299.295 406.684 300.058 407.193 300.62C407.702 301.183 408.393 301.499 409.113 301.5H424.508C425.228 301.499 425.918 301.183 426.428 300.62C426.937 300.058 427.224 299.295 427.225 298.5V188.5C427.224 187.705 426.937 186.942 426.428 186.38C425.918 185.817 425.228 185.501 424.508 185.5H409.113Z" fill="#3F3D56"/>
<path d="M92.6617 358.283C93.014 356.865 93.0801 355.379 92.8555 353.93C92.6309 352.481 92.122 351.104 91.3631 349.896C90.6052 348.688 89.6157 347.678 88.4656 346.938C87.3154 346.197 86.0324 345.744 84.7066 345.611L76.9189 310.926L65.521 324.58L74.6637 355.423C74.6082 357.898 75.3765 360.309 76.8231 362.199C78.2697 364.09 80.2941 365.329 82.5126 365.681C84.7311 366.034 86.9896 365.475 88.8602 364.112C90.731 362.748 92.0831 360.674 92.6617 358.283Z" fill="#FFB8B8"/>
<path d="M71.7825 347.615C71.2542 347.372 70.7783 347.009 70.3855 346.549C69.9927 346.089 69.6919 345.543 69.5029 344.946L56.5025 300.768C53.1435 290.156 53.3892 278.559 57.194 268.133L69.7256 233.778C70.0073 231.898 70.6218 230.099 71.5339 228.481C72.4458 226.864 73.6376 225.462 75.0408 224.354C76.4441 223.245 78.0315 222.454 79.712 222.023C81.3925 221.593 83.1335 221.533 84.8351 221.846C86.5368 222.159 88.1659 222.84 89.6292 223.849C91.0924 224.858 92.3611 226.175 93.3635 227.726C94.3651 229.277 95.0805 231.031 95.4681 232.887C95.8565 234.743 95.9091 236.666 95.6229 238.544L78.3339 294.102L84.3858 339.341C84.4663 340.261 84.2888 341.187 83.8775 341.992C83.4661 342.798 82.8406 343.444 82.0857 343.845L75.1049 347.523C74.3561 347.917 73.5164 348.05 72.6975 347.903C72.3833 347.848 72.0762 347.751 71.7825 347.615Z" fill="#2F2E41"/>
<path d="M136.049 517.723L147.151 517.722L152.432 470.434L136.047 470.435L136.049 517.723Z" fill="#FFB8B8"/>
<path d="M168.562 529.106L133.67 529.108V514.221L155.08 514.22C158.656 514.219 162.085 515.788 164.613 518.579C167.142 521.371 168.562 525.158 168.562 529.106Z" fill="#2F2E41"/>
<path d="M80.8094 517.723L91.9119 517.722L97.1931 470.434L80.8076 470.435L80.8094 517.723Z" fill="#FFB8B8"/>
<path d="M113.323 529.106L78.4311 529.108L78.4304 514.221L99.841 514.22C103.417 514.219 106.846 515.788 109.374 518.579C111.902 521.371 113.323 525.158 113.323 529.106Z" fill="#2F2E41"/>
<path d="M139.084 324.992L148.843 410.378C150.184 422.116 151.123 433.898 151.658 445.723L154.288 503.792C154.312 504.333 154.237 504.875 154.066 505.383C153.896 505.891 153.633 506.356 153.295 506.749C152.956 507.141 152.549 507.454 152.098 507.668C151.646 507.881 151.161 507.992 150.67 507.992H135.859C134.992 507.992 134.155 507.649 133.497 507.025C132.84 506.401 132.407 505.538 132.277 504.592L118.957 407.678C118.892 407.211 118.68 406.784 118.358 406.473C118.036 406.162 117.624 405.987 117.196 405.979C116.769 405.971 116.352 406.13 116.021 406.429C115.689 406.728 115.464 407.147 115.385 407.611L99.3375 502.528C99.179 503.381 98.7715 504.154 98.1793 504.729C97.5871 505.303 96.84 505.649 96.0539 505.712L82.4212 506.668C81.9151 506.709 81.4068 506.632 80.9293 506.442C80.4519 506.252 80.0159 505.953 79.6497 505.565C79.2834 505.177 78.995 504.709 78.8032 504.19C78.6114 503.671 78.5205 503.113 78.5364 502.553L82.9386 346.992L139.084 324.992Z" fill="#2F2E41"/>
<path d="M95.8448 203.372C108.129 203.372 118.086 192.375 118.086 178.811C118.086 165.246 108.129 154.25 95.8448 154.25C83.561 154.25 73.6031 165.246 73.6031 178.811C73.6031 192.375 83.561 203.372 95.8448 203.372Z" fill="#FFB8B8"/>
<path d="M78.4108 348.992C83.8441 362.992 107.389 372.992 112.822 352.992C117.024 337.532 133.668 331.032 141.012 328.882C141.935 328.61 142.725 327.948 143.209 327.038C143.695 326.129 143.836 325.045 143.602 324.022L123.073 234.972C121.877 229.784 119.496 225.023 116.157 221.143C112.818 217.263 108.632 214.394 104.002 212.812C87.684 207.232 70.4783 218.722 67.7161 237.332C66.9617 242.55 66.4809 247.812 66.2763 253.092C64.5735 292.382 74.8336 339.772 78.4108 348.992Z" fill="#6C63FF"/>
<path d="M152.115 348.966C151.981 347.503 151.56 346.091 150.879 344.827C150.198 343.564 149.274 342.481 148.173 341.655C147.072 340.829 145.82 340.279 144.506 340.045C143.191 339.81 141.846 339.897 140.566 340.299L122.008 311.024L115.817 328.289L134.388 353.442C135.143 355.773 136.644 357.718 138.609 358.908C140.575 360.098 142.867 360.45 145.052 359.898C147.237 359.347 149.162 357.929 150.465 355.914C151.766 353.899 152.353 351.427 152.115 348.966Z" fill="#FFB8B8"/>
<path d="M129.159 347.299C128.586 347.282 128.024 347.132 127.508 346.859C126.991 346.585 126.532 346.195 126.162 345.713L99.6499 309.649C93.0611 301.08 89.5155 290.16 89.6721 278.92L90.1831 241.887C89.8352 240.022 89.8236 238.099 90.1488 236.229C90.4741 234.359 91.1295 232.578 92.0785 230.987C93.0276 229.397 94.251 228.029 95.6781 226.961C97.1062 225.893 98.7109 225.146 100.4 224.763C102.09 224.38 103.831 224.368 105.524 224.728C107.218 225.088 108.83 225.814 110.269 226.862C111.709 227.911 112.947 229.263 113.913 230.84C114.88 232.417 115.555 234.189 115.901 236.055L117.853 294.762L138.226 334.575C138.6 335.402 138.736 336.336 138.615 337.251C138.493 338.166 138.12 339.018 137.545 339.691L132.228 345.894C131.658 346.559 130.917 347.017 130.106 347.205C129.794 347.278 129.476 347.309 129.159 347.299Z" fill="#2F2E41"/>
<path d="M78.9627 198.9C79.4418 199.213 79.9797 199.401 80.5349 199.448C81.0901 199.495 81.6477 199.401 82.1645 199.172C82.6813 198.943 83.1434 198.586 83.5152 198.128C83.8869 197.67 84.1582 197.124 84.3081 196.532L84.3205 196.476C84.7242 194.611 84.3889 192.665 84.2731 190.753C84.1573 188.84 84.3268 186.739 85.5062 185.333C87.7049 182.712 91.6167 184.101 94.7961 183.439C96.658 182.98 98.3052 181.787 99.429 180.084C100.552 178.381 101.075 176.284 100.9 174.186C100.854 173.788 100.783 173.39 100.704 172.993C100.505 171.985 100.52 170.94 100.748 169.94C100.977 168.94 101.412 168.012 102.02 167.229C102.627 166.446 103.392 165.829 104.251 165.427C105.111 165.025 106.044 164.849 106.976 164.911C110.189 165.114 113.657 166.189 116.316 163.561C117.29 162.525 117.967 161.194 118.261 159.736C118.555 158.277 118.454 156.755 117.969 155.36C116.452 150.522 112.162 147.989 107.917 146.596C102.665 144.921 97.1433 144.559 91.7498 145.536C86.3564 146.513 81.2281 148.805 76.7376 152.246C74.056 154.333 71.5518 156.956 70.4088 160.352C69.2659 163.748 69.8173 168.032 72.3945 170.274C70.3968 172.609 68.99 175.484 68.3152 178.609C67.6403 181.734 67.7211 185 68.5493 188.08C69.8222 192.61 75.8975 196.952 78.9627 198.9Z" fill="#2F2E41"/>
<path d="M240.88 530.721H0.905563C0.665393 530.721 0.435059 530.616 0.265232 530.428C0.0954065 530.241 0 529.987 0 529.721C0 529.456 0.0954065 529.202 0.265232 529.014C0.435059 528.827 0.665393 528.721 0.905563 528.721H240.88C241.12 528.721 241.351 528.827 241.52 529.014C241.69 529.202 241.785 529.456 241.785 529.721C241.785 529.987 241.69 530.241 241.52 530.428C241.351 530.616 241.12 530.721 240.88 530.721Z" fill="#3F3D56"/>
</svg>
