<svg width="800" height="420" viewBox="0 0 800 420" fill="none" xmlns="http://www.w3.org/2000/svg">
<path opacity="0.1" d="M400 366.416C620.914 366.416 800 363.521 800 359.949C800 356.377 620.914 353.482 400 353.482C179.086 353.482 0 356.377 0 359.949C0 363.521 179.086 366.416 400 366.416Z" fill="#6C63FF"/>
<path d="M569.146 246.818C609.443 246.818 642.109 214.151 642.109 173.854C642.109 133.557 609.443 100.891 569.146 100.891C528.849 100.891 496.182 133.557 496.182 173.854C496.182 214.151 528.849 246.818 569.146 246.818Z" fill="#3F3D56"/>
<path d="M600.467 192.672C597.927 190.131 591.817 186.299 588.788 184.869C585.292 183.19 584.007 183.219 581.533 185.007C579.474 186.467 578.139 187.876 575.774 187.358C573.409 186.839 568.723 183.307 564.19 178.788C559.657 174.27 556.139 169.613 555.635 167.212C555.131 164.81 556.518 163.504 557.993 161.445C559.774 158.971 559.825 157.686 558.131 154.19C556.671 151.161 552.883 145.066 550.321 142.511C547.759 139.956 547.204 140.518 545.803 141.051C544.36 141.656 542.975 142.389 541.664 143.241C539.124 144.942 537.701 146.358 536.701 148.489C535.701 150.62 534.569 154.577 540.387 164.934C544.678 172.858 550.114 180.106 556.518 186.445V186.445C562.879 192.864 570.152 198.31 578.102 202.606C588.452 208.445 592.416 207.285 594.547 206.292C596.679 205.299 598.095 203.891 599.788 201.328C600.642 200.018 601.375 198.633 601.978 197.19C602.46 195.788 603.029 195.219 600.467 192.672Z" fill="#6C63FF"/>
<path opacity="0.1" d="M569.146 100.898C554.706 100.891 540.589 105.166 528.58 113.184C516.571 121.202 507.209 132.601 501.68 145.941C496.151 159.28 494.702 173.959 497.518 188.122C500.333 202.284 507.285 215.294 517.496 225.504C527.706 235.715 540.716 242.667 554.878 245.482C569.041 248.298 583.72 246.849 597.059 241.32C610.399 235.791 621.798 226.43 629.816 214.42C637.834 202.411 642.109 188.294 642.102 173.854C642.092 154.508 634.403 135.957 620.723 122.277C607.043 108.597 588.492 100.907 569.146 100.898V100.898ZM569.146 237.117C556.634 237.117 544.403 233.407 533.999 226.455C523.596 219.504 515.487 209.623 510.699 198.064C505.911 186.504 504.658 173.784 507.099 161.512C509.54 149.24 515.565 137.968 524.412 129.12C533.26 120.273 544.532 114.248 556.804 111.807C569.076 109.366 581.796 110.619 593.356 115.407C604.915 120.195 614.796 128.304 621.747 138.707C628.698 149.111 632.409 161.342 632.409 173.854C632.409 182.162 630.772 190.388 627.593 198.064C624.414 205.739 619.754 212.713 613.88 218.588C608.005 224.462 601.031 229.122 593.356 232.301C585.68 235.48 577.454 237.117 569.146 237.117Z" fill="black"/>
<path d="M401.518 357.642C441.815 357.642 474.482 324.975 474.482 284.679C474.482 244.382 441.815 211.715 401.518 211.715C361.222 211.715 328.555 244.382 328.555 284.679C328.555 324.975 361.222 357.642 401.518 357.642Z" fill="#3F3D56"/>
<path d="M443.015 262.635L421.168 284.861C421.129 284.898 421.099 284.942 421.078 284.991C421.057 285.04 421.046 285.093 421.046 285.146C421.046 285.199 421.057 285.252 421.078 285.301C421.099 285.35 421.129 285.394 421.168 285.431L436.496 301.73C436.863 302.099 437.112 302.569 437.213 303.08C437.314 303.59 437.262 304.119 437.063 304.601C436.864 305.082 436.528 305.493 436.096 305.784C435.664 306.074 435.156 306.231 434.635 306.234C433.935 306.232 433.263 305.954 432.766 305.46L417.518 289.219C417.44 289.142 417.336 289.099 417.226 289.099C417.117 289.099 417.012 289.142 416.934 289.219L413.219 292.971C411.698 294.526 409.881 295.762 407.875 296.606C405.87 297.45 403.716 297.884 401.54 297.883C399.323 297.873 397.13 297.421 395.09 296.554C393.05 295.686 391.203 294.421 389.657 292.832L386.088 289.182C386.01 289.106 385.905 289.063 385.796 289.063C385.686 289.063 385.582 289.106 385.504 289.182L370.292 305.387C370.047 305.632 369.757 305.827 369.436 305.959C369.116 306.092 368.773 306.16 368.427 306.16C368.081 306.16 367.738 306.092 367.418 305.959C367.098 305.827 366.807 305.632 366.562 305.387C366.316 305.143 366.121 304.852 365.987 304.532C365.854 304.212 365.786 303.869 365.786 303.522C365.786 303.175 365.854 302.832 365.987 302.512C366.121 302.192 366.316 301.901 366.562 301.657L381.832 285.394C381.9 285.315 381.937 285.214 381.937 285.109C381.937 285.005 381.9 284.904 381.832 284.825L359.985 262.599C359.929 262.542 359.858 262.504 359.779 262.488C359.701 262.472 359.62 262.48 359.547 262.511C359.473 262.541 359.41 262.593 359.366 262.659C359.322 262.726 359.299 262.804 359.299 262.883V307.358C359.305 309.077 359.991 310.724 361.206 311.94C362.422 313.155 364.069 313.841 365.788 313.847H437.226C438.946 313.841 440.593 313.155 441.808 311.94C443.024 310.724 443.71 309.077 443.715 307.358V262.92C443.719 262.837 443.697 262.755 443.652 262.685C443.607 262.616 443.542 262.561 443.465 262.53C443.389 262.499 443.304 262.492 443.223 262.511C443.143 262.53 443.07 262.573 443.015 262.635V262.635Z" fill="#6C63FF"/>
<path d="M401.518 292.606C402.999 292.62 404.468 292.337 405.837 291.773C407.206 291.209 408.448 290.375 409.489 289.321L441.307 256.934C440.177 255.999 438.759 255.483 437.292 255.474H365.803C364.336 255.479 362.916 255.995 361.788 256.934L393.613 289.321C394.645 290.369 395.876 291.199 397.233 291.763C398.591 292.328 400.048 292.614 401.518 292.606V292.606Z" fill="#6C63FF"/>
<path opacity="0.1" d="M400.599 211.723C386.159 211.715 372.041 215.991 360.032 224.009C348.023 232.027 338.662 243.426 333.133 256.765C327.603 270.105 326.155 284.784 328.97 298.947C331.785 313.109 338.738 326.119 348.948 336.329C359.159 346.539 372.168 353.492 386.331 356.307C400.493 359.123 415.173 357.674 428.512 352.145C441.851 346.616 453.251 337.254 461.268 325.245C469.286 313.236 473.562 299.119 473.555 284.679C473.545 265.333 465.856 246.782 452.176 233.102C438.496 219.422 419.945 211.732 400.599 211.723ZM400.599 347.942C388.086 347.942 375.855 344.231 365.452 337.28C355.048 330.329 346.94 320.448 342.151 308.888C337.363 297.329 336.11 284.609 338.551 272.337C340.992 260.065 347.018 248.793 355.865 239.945C364.712 231.098 375.985 225.073 388.257 222.632C400.528 220.191 413.248 221.443 424.808 226.232C436.368 231.02 446.248 239.128 453.2 249.532C460.151 259.935 463.861 272.167 463.861 284.679C463.861 301.457 457.196 317.548 445.332 329.412C433.468 341.276 417.377 347.942 400.599 347.942Z" fill="black"/>
<path d="M228.358 303.153C268.654 303.153 301.321 270.486 301.321 230.19C301.321 189.893 268.654 157.226 228.358 157.226C188.061 157.226 155.394 189.893 155.394 230.19C155.394 270.486 188.061 303.153 228.358 303.153Z" fill="#3F3D56"/>
<path d="M228.358 195.277L199.27 262.387L201.985 265.102L228.365 253.467L254.745 265.102L257.46 262.387L228.358 195.277Z" fill="#6C63FF"/>
<path opacity="0.1" d="M228.358 157.204C213.92 157.197 199.804 161.472 187.795 169.488C175.787 177.504 166.425 188.902 160.895 202.239C155.365 215.576 153.914 230.253 156.727 244.415C159.539 258.576 166.488 271.586 176.695 281.798C186.901 292.01 199.907 298.965 214.068 301.785C228.228 304.604 242.906 303.161 256.246 297.637C269.586 292.113 280.988 282.758 289.01 270.753C297.032 258.749 301.314 244.635 301.314 230.197C301.314 210.845 293.629 192.284 279.948 178.596C266.267 164.909 247.71 157.214 228.358 157.204V157.204ZM228.358 293.423C215.844 293.423 203.611 289.712 193.207 282.759C182.803 275.806 174.694 265.924 169.907 254.362C165.12 242.8 163.869 230.078 166.313 217.805C168.757 205.532 174.786 194.26 183.637 185.414C192.488 176.568 203.764 170.546 216.038 168.109C228.312 165.672 241.033 166.93 252.593 171.724C264.152 176.518 274.029 184.632 280.976 195.04C287.923 205.449 291.628 217.683 291.62 230.197C291.618 246.974 284.952 263.063 273.089 274.926C261.225 286.788 245.135 293.453 228.358 293.453V293.423Z" fill="black"/>
<path d="M677.258 269.65C676.596 268.034 675.917 266.423 675.222 264.818C674.648 263.251 673.806 261.796 672.732 260.518C672.325 260.059 671.828 259.686 671.273 259.423C670.661 259.198 670.018 259.07 669.367 259.044C668.375 258.919 667.373 258.892 666.375 258.964C665.988 258.847 665.55 258.693 665.119 258.518C667.279 257.951 669.2 256.705 670.598 254.963C671.996 253.222 672.798 251.078 672.886 248.847C672.886 248.701 672.886 248.547 672.886 248.401C672.891 247.036 672.628 245.682 672.111 244.418C671.593 243.153 670.832 242.004 669.87 241.034C668.908 240.064 667.765 239.293 666.505 238.765C665.245 238.237 663.894 237.962 662.528 237.956C660.605 237.953 658.72 238.491 657.09 239.511C654.937 239.023 652.682 239.279 650.694 240.237C648.705 241.196 647.1 242.8 646.141 244.788C644.932 245.945 643.977 247.34 643.336 248.886C642.695 250.432 642.383 252.094 642.419 253.766C642.419 253.92 642.419 254.08 642.419 254.226C642.608 259.898 646.273 264.445 650.9 264.905C650.406 265.127 649.952 265.431 649.557 265.803C648.141 267.168 647.908 269.336 647.754 271.307L647.645 272.766L645.192 273.642C645.114 273.67 645.045 273.719 644.993 273.783C644.941 273.847 644.907 273.925 644.896 274.007C644.885 274.089 644.896 274.173 644.929 274.249C644.962 274.325 645.015 274.39 645.083 274.438L647.426 276.109C647.426 276.248 647.426 276.387 647.426 276.526C647.426 276.664 647.426 276.839 647.47 277C647.069 277.352 646.759 277.795 646.565 278.292C646.336 279.058 646.264 279.862 646.353 280.657L646.44 282.693C646.429 284.226 646.638 285.753 647.061 287.226C647.367 288.131 648.696 290.314 649.652 290.328C648.769 294.343 648.535 302.81 648.535 302.81C648.426 302.92 648.732 303.022 649.265 303.109C649.791 307.139 651.506 318.438 654.55 323.409C655.029 325.029 655.412 326.677 655.696 328.343C655.696 328.343 656.565 339.08 657.711 342.27C658.689 344.985 659.462 351.686 659.674 353.628C659.476 353.679 659.295 353.783 659.152 353.93C659.009 354.077 658.91 354.26 658.864 354.46C658.287 356.197 654.55 358.839 654.55 358.839C653.404 359.412 652.323 360.104 651.324 360.905C650.148 361.964 650.192 362.92 655.411 362.321C665.484 361.161 667.207 357.942 667.207 357.942C667.207 357.942 667.046 357.401 666.805 356.701C666.498 355.61 666.054 354.563 665.484 353.584C665.338 353.445 665.192 353.679 665.017 354.044C664.257 349.386 664.027 344.658 664.331 339.949C664.331 339.949 664.616 335.015 663.178 331.533C662.858 329.71 662.858 327.845 663.178 326.022C663.754 323.701 660.878 312.38 660.878 312.38L659.229 304.044C659.454 304.328 659.611 304.66 659.689 305.015L659.732 305.182L659.776 305.423C659.793 305.508 659.833 305.587 659.893 305.65C661.017 310.321 664.097 323.263 664.097 325.161C664.097 327.482 666.973 333.285 666.973 333.285C666.973 333.285 668.119 342.861 670.134 346.628C671.667 349.496 671.703 353.701 671.63 355.555C671.63 355.555 671.287 357.942 670.711 358.518C670.252 359.088 669.885 359.726 669.623 360.409L669.557 360.547C669.557 360.547 668.696 362.292 669.273 362.584C671.466 363.444 673.84 363.743 676.178 363.453C676.178 363.453 677.331 361.993 677.331 361.423C677.307 361.076 677.263 360.73 677.2 360.387C676.988 359.015 676.594 356.854 676.586 356.832C676.827 355.898 675.857 353.299 675.857 353.299L675.565 345.175C676.099 339.674 675.411 334.124 673.55 328.92C673.55 328.92 672.09 323.701 672.404 322.248C672.718 320.796 671.827 305.416 671.827 305.416L671.74 305.197C671.662 304.109 671.691 303.016 671.827 301.934C672.112 298.453 670.966 291.197 670.674 290.912C670.436 290.133 670.299 289.326 670.265 288.511C670.331 287.905 670.528 286.131 670.798 283.927C673.636 283.83 676.467 283.586 679.28 283.197C679.552 283.197 679.813 283.093 680.01 282.905C680.125 282.73 680.184 282.524 680.178 282.314C680.513 277.942 678.915 273.693 677.258 269.65ZM671.47 278.854C671.769 276.774 672.09 274.759 672.411 273.263L672.455 273.394C673.008 274.898 673.471 276.434 673.842 277.993C673.076 278.343 672.282 278.631 671.47 278.854Z" fill="url(#paint0_linear)"/>
<path d="M649.112 302.35C649.112 302.35 650.835 317.847 654.565 323.869C655.044 325.469 655.426 327.098 655.711 328.745C655.711 328.745 656.572 339.358 657.718 342.511C658.864 345.664 659.725 354.277 659.725 354.277C659.725 354.277 663.74 358.861 665.178 355.139C664.275 350.22 663.985 345.209 664.316 340.219C664.316 340.219 664.601 335.343 663.17 331.898C662.85 330.097 662.85 328.254 663.17 326.453C663.74 324.153 660.871 312.971 660.871 312.971L658.579 301.781L649.112 302.35Z" fill="#BE6F72"/>
<path d="M667.185 358.007C667.185 358.007 665.462 361.161 655.426 362.307C650.214 362.898 650.178 361.956 651.353 360.905C652.349 360.113 653.425 359.428 654.565 358.861C654.565 358.861 658.294 356.285 658.864 354.562C659.433 352.839 661.448 354.277 661.448 354.277C664.316 358.577 664.893 353.124 665.462 353.701C666.034 354.664 666.478 355.697 666.784 356.774C667.024 357.467 667.185 358.007 667.185 358.007Z" fill="#FF6F61"/>
<path opacity="0.1" d="M667.185 358.007C667.185 358.007 665.462 361.161 655.426 362.307C650.214 362.898 650.178 361.956 651.353 360.905C652.17 361.423 653.82 361.635 657.141 360.299C661.922 358.343 665.389 357.212 666.784 356.774C667.024 357.467 667.185 358.007 667.185 358.007Z" fill="black"/>
<path opacity="0.1" d="M664.316 340.219C664.316 340.219 664.601 335.343 663.17 331.898C662.85 330.097 662.85 328.254 663.17 326.453C663.74 324.153 660.871 312.971 660.871 312.971L658.579 301.781L656.594 301.898L658.864 312.971C658.864 312.971 661.732 324.153 661.163 326.453C660.843 328.254 660.843 330.097 661.163 331.898C662.623 335.343 662.309 340.219 662.309 340.219C661.978 345.209 662.267 350.22 663.17 355.139C663.015 355.606 662.726 356.017 662.338 356.321C663.404 356.803 664.528 356.781 665.178 355.139C664.275 350.22 663.985 345.209 664.316 340.219V340.219Z" fill="black"/>
<path d="M662.448 239.387C660.534 239.383 658.657 239.917 657.032 240.927C654.885 240.431 652.635 240.678 650.646 241.625C648.658 242.573 647.049 244.167 646.083 246.146C644.879 247.285 643.926 248.662 643.286 250.191C642.647 251.72 642.334 253.365 642.367 255.022C642.367 261.124 646.477 266.066 651.543 266.066C655.192 266.066 658.389 263.467 659.856 259.708C660.7 259.931 661.568 260.044 662.44 260.044C665.18 260.044 667.807 258.956 669.744 257.019C671.681 255.082 672.769 252.455 672.769 249.715C672.769 246.976 671.681 244.349 669.744 242.412C667.807 240.475 665.18 239.387 662.44 239.387H662.448Z" fill="#3F3D56"/>
<path d="M670.915 303.788L671.776 306.08C671.776 306.08 672.638 321.285 672.346 322.723C672.054 324.161 673.499 329.292 673.499 329.292C675.354 334.429 676.04 339.915 675.506 345.35L675.791 353.38C675.791 353.38 676.937 356.533 676.367 357.109C675.798 357.686 671.47 356.599 671.47 356.599C671.47 356.599 672.046 350.577 670.01 346.847C667.973 343.117 666.856 333.65 666.856 333.65C666.856 333.65 663.988 327.912 663.988 325.62C663.988 323.328 659.397 304.679 659.397 304.679L670.915 303.788Z" fill="#BE6F72"/>
<path d="M648.535 303.504C648.535 303.504 648.827 293.175 649.995 290.022C650.589 288.548 651.018 287.013 651.273 285.445C651.273 285.445 668.638 288.584 670.075 287.438C670.075 287.438 670.36 291.453 670.652 291.737C670.944 292.022 672.112 299.197 671.798 302.642C671.484 306.088 671.798 306.08 671.798 306.08C671.798 306.08 660.032 307.803 659.747 306.08C659.462 304.358 658.601 304.365 658.601 304.365C658.601 304.365 647.966 304.044 648.535 303.504Z" fill="#3F3D56"/>
<g opacity="0.1">
<path opacity="0.1" d="M658.002 303.504C658.002 303.504 650.747 303.307 648.557 302.912C648.557 303.285 648.557 303.504 648.557 303.504C647.988 304.073 658.601 304.365 658.601 304.365C658.745 304.378 658.883 304.434 658.995 304.526C658.608 303.504 658.002 303.504 658.002 303.504Z" fill="black"/>
<path opacity="0.1" d="M670.63 291.737C670.338 291.453 670.054 287.438 670.054 287.438C669.905 287.53 669.738 287.59 669.565 287.613C669.667 288.825 669.864 290.686 670.054 290.876C670.243 291.066 671.513 298.336 671.2 301.781C670.886 305.226 671.2 305.219 671.2 305.219C671.2 305.219 661.893 306.584 659.638 305.672C659.638 305.796 659.703 305.934 659.725 306.08C660.01 307.803 671.776 306.08 671.776 306.08C671.776 306.08 671.484 306.08 671.776 302.642C672.068 299.204 670.915 292.029 670.63 291.737Z" fill="black"/>
</g>
<path d="M661.178 257.46C661.425 258.012 661.8 258.498 662.273 258.876C662.577 259.102 662.929 259.254 663.302 259.321C662.659 259.693 661.959 259.971 661.316 260.343C660.306 261.022 659.332 261.753 658.397 262.533C657.441 263.301 656.27 263.755 655.046 263.832C655.476 263.253 655.745 262.571 655.827 261.855C655.909 261.138 655.801 260.413 655.513 259.752C655.251 259.318 655.077 258.837 655.003 258.336C655.003 257.511 655.732 256.876 656.411 256.438C656.959 256.066 657.521 255.708 658.09 255.35C658.535 255.073 659.207 254.489 659.769 254.511C660.331 254.533 660.397 255.029 660.499 255.54C660.643 256.206 660.872 256.851 661.178 257.46V257.46Z" fill="#BE6F72"/>
<path opacity="0.1" d="M661.178 257.46C661.425 258.012 661.8 258.498 662.273 258.876C662.577 259.102 662.929 259.254 663.302 259.321C662.659 259.693 661.959 259.971 661.316 260.343C660.306 261.022 659.332 261.753 658.397 262.533C657.441 263.301 656.27 263.755 655.046 263.832C655.476 263.253 655.745 262.571 655.827 261.855C655.909 261.138 655.801 260.413 655.513 259.752C655.251 259.318 655.077 258.837 655.003 258.336C655.003 257.511 655.732 256.876 656.411 256.438C656.959 256.066 657.521 255.708 658.09 255.35C658.535 255.073 659.207 254.489 659.769 254.511C660.331 254.533 660.397 255.029 660.499 255.54C660.643 256.206 660.872 256.851 661.178 257.46V257.46Z" fill="black"/>
<path d="M667.9 274.387C671.545 274.387 674.499 271.433 674.499 267.788C674.499 264.144 671.545 261.19 667.9 261.19C664.256 261.19 661.302 264.144 661.302 267.788C661.302 271.433 664.256 274.387 667.9 274.387Z" fill="#BE6F72"/>
<path d="M677.221 361.445C677.221 362.022 676.075 363.453 676.075 363.453C673.745 363.739 671.38 363.443 669.192 362.591C668.616 362.307 669.477 360.584 669.477 360.584L669.543 360.445C669.806 359.77 670.173 359.139 670.63 358.577C671.2 358.007 671.543 355.657 671.543 355.657C673.324 352.737 676.484 356.92 676.484 356.92C676.484 356.92 676.886 359.109 677.097 360.438C677.17 360.912 677.221 361.299 677.221 361.445Z" fill="#FF6F61"/>
<path opacity="0.1" d="M677.221 361.445C677.221 362.022 676.075 363.453 676.075 363.453C673.745 363.739 671.38 363.443 669.192 362.591C668.616 362.307 669.477 360.584 669.477 360.584L669.543 360.445C671.497 361.353 673.637 361.793 675.791 361.73L677.097 360.423C677.17 360.912 677.221 361.299 677.221 361.445Z" fill="black"/>
<path d="M654.703 260.467C658.267 260.467 661.156 257.578 661.156 254.015C661.156 250.451 658.267 247.562 654.703 247.562C651.14 247.562 648.251 250.451 648.251 254.015C648.251 257.578 651.14 260.467 654.703 260.467Z" fill="#BE6F72"/>
<path d="M649.499 266.92C648.083 268.27 647.849 270.409 647.703 272.358L647.484 275.212C647.405 275.98 647.388 276.754 647.433 277.526C647.433 278 647.55 278.482 647.594 278.985C647.637 279.489 647.652 280.124 647.659 280.701V284.92C647.59 285.79 647.751 286.664 648.127 287.453C648.327 287.834 648.663 288.127 649.068 288.272C649.474 288.418 649.919 288.407 650.316 288.241C650.77 287.891 651.089 287.397 651.221 286.839C651.933 285.128 652.424 283.332 652.681 281.496C652.74 280.861 652.747 280.226 652.805 279.591C652.864 278.956 652.973 278.292 653.068 277.65C653.477 274.964 653.659 272.248 653.842 269.54C653.893 268.737 654.616 265.577 653.565 265.226C653.054 265.058 651.995 265.584 651.506 265.759C650.766 266.007 650.083 266.402 649.499 266.92V266.92Z" fill="#BE6F72"/>
<path opacity="0.1" d="M649.499 266.92C648.083 268.27 647.849 270.409 647.703 272.358L647.484 275.212C647.405 275.98 647.388 276.754 647.433 277.526C647.433 278 647.55 278.482 647.594 278.985C647.637 279.489 647.652 280.124 647.659 280.701V284.92C647.59 285.79 647.751 286.664 648.127 287.453C648.327 287.834 648.663 288.127 649.068 288.272C649.474 288.418 649.919 288.407 650.316 288.241C650.77 287.891 651.089 287.397 651.221 286.839C651.933 285.128 652.424 283.332 652.681 281.496C652.74 280.861 652.747 280.226 652.805 279.591C652.864 278.956 652.973 278.292 653.068 277.65C653.477 274.964 653.659 272.248 653.842 269.54C653.893 268.737 654.616 265.577 653.565 265.226C653.054 265.058 651.995 265.584 651.506 265.759C650.766 266.007 650.083 266.402 649.499 266.92V266.92Z" fill="black"/>
<path d="M662.878 258.175C662.878 258.175 658.002 261.905 655.134 262.766C655.134 262.766 653.433 264.708 653.141 265.175C652.849 265.642 652.265 270.796 651.681 271.949C651.097 273.102 649.674 275.679 651.681 278.255C651.681 278.255 652.251 280.839 651.966 281.701C651.681 282.562 650.637 285.715 651.586 285.861C652.535 286.007 655.411 288.007 657.988 287.438C660.565 286.869 670.185 289.628 670.185 289.628C670.185 289.628 671.776 274.847 672.93 272.234L670.346 271.372C670.346 271.372 663.178 267.073 667.477 260.474C667.47 260.474 663.44 259.613 662.878 258.175Z" fill="#FF6F61"/>
<path d="M645.075 275.453L651.003 279.65C651.078 279.705 651.168 279.734 651.262 279.734C651.355 279.734 651.446 279.705 651.521 279.65L653.127 278.445C653.176 278.403 653.216 278.35 653.243 278.291C653.27 278.232 653.284 278.167 653.284 278.102C653.284 278.037 653.27 277.973 653.243 277.913C653.216 277.854 653.176 277.802 653.127 277.759L648.565 273.708C648.505 273.654 648.433 273.618 648.354 273.602C648.276 273.587 648.194 273.593 648.119 273.62L645.192 274.672C645.115 274.698 645.047 274.745 644.995 274.808C644.943 274.87 644.909 274.946 644.897 275.027C644.885 275.107 644.895 275.189 644.927 275.265C644.958 275.34 645.01 275.405 645.075 275.453V275.453Z" fill="#3F3D56"/>
<path d="M647.068 288.095C646.649 286.641 646.44 285.134 646.448 283.62L646.36 281.599C646.272 280.814 646.344 280.019 646.572 279.263C646.797 278.744 647.134 278.282 647.56 277.909C647.985 277.537 648.488 277.264 649.032 277.109C650.121 276.807 651.26 276.725 652.382 276.869C652.533 276.869 652.682 276.909 652.813 276.985C652.927 277.091 653.008 277.228 653.046 277.38C653.212 277.703 653.31 278.058 653.332 278.421C653.355 278.784 653.302 279.147 653.178 279.489C653.008 279.767 652.779 280.004 652.506 280.182C651.711 280.752 650.784 281.131 650.032 281.752C649.879 281.855 649.762 282.003 649.696 282.175C649.66 282.326 649.66 282.484 649.696 282.635C649.789 283.037 649.916 283.43 650.075 283.81C650.14 284.001 650.253 284.172 650.404 284.307C650.543 284.423 650.725 284.467 650.871 284.577C651.185 284.832 651.842 285.168 651.805 285.569C651.696 287.029 650.82 288.664 650.477 290.109C649.82 292.934 647.492 289.328 647.068 288.095Z" fill="#BE6F72"/>
<g opacity="0.1">
<path opacity="0.1" d="M656.287 287.438H656.127C656.746 287.558 657.383 287.558 658.002 287.438H658.185C657.556 287.346 656.916 287.346 656.287 287.438Z" fill="black"/>
<path opacity="0.1" d="M671.346 271.803C670.316 274.117 668.798 286.65 668.528 289.139C669.535 289.401 670.2 289.591 670.2 289.591C670.2 289.591 671.776 274.847 672.93 272.234L671.346 271.803Z" fill="black"/>
</g>
<path d="M668.127 267.993C668.18 268.281 668.291 268.555 668.453 268.8C668.615 269.044 668.824 269.254 669.068 269.416C669.677 269.927 670.237 270.494 670.74 271.109C671.461 272.124 672.02 273.244 672.397 274.431C672.944 275.916 673.405 277.432 673.776 278.971C670.127 280.664 665.981 280.584 662.097 281.701C660.425 282.142 658.909 283.039 657.718 284.292C657.124 284.922 656.672 285.672 656.394 286.492C656.116 287.312 656.017 288.182 656.105 289.044C656.11 289.144 656.14 289.242 656.192 289.328C656.256 289.4 656.335 289.456 656.424 289.491C656.512 289.527 656.608 289.541 656.703 289.533C657.673 289.531 658.616 289.208 659.382 288.613C660.14 288.021 660.828 287.345 661.433 286.599C661.809 286.109 662.315 285.735 662.893 285.518C665.002 284.876 667.273 284.912 669.462 284.876C672.738 284.812 676.006 284.554 679.251 284.102C679.369 284.116 679.489 284.103 679.602 284.064C679.715 284.025 679.817 283.961 679.901 283.877C679.985 283.792 680.05 283.69 680.089 283.577C680.128 283.465 680.141 283.345 680.127 283.226C680.448 278.92 678.849 274.715 677.207 270.723C676.55 269.122 675.874 267.528 675.178 265.942C674.605 264.392 673.765 262.954 672.696 261.693C672.29 261.235 671.793 260.867 671.236 260.613C670.608 260.387 669.947 260.263 669.28 260.248C668.218 260.105 667.142 260.085 666.075 260.19C665.905 260.727 665.802 261.284 665.769 261.847C665.827 263.818 666.689 265.664 667.535 267.445C667.645 267.715 667.959 267.73 668.127 267.993Z" fill="#BE6F72"/>
<path opacity="0.1" d="M656.44 271.686C655.947 272.531 655.694 273.496 655.71 274.474C655.712 274.861 655.774 275.245 655.893 275.613C656.092 276.129 656.405 276.594 656.808 276.973C657.211 277.352 657.694 277.636 658.221 277.803" stroke="black" stroke-miterlimit="10"/>
<path d="M660.156 247.708C659.796 247.707 659.439 247.764 659.097 247.876C658.141 246.416 655.893 245.409 653.258 245.409C649.769 245.409 646.944 247.212 646.944 249.431C646.944 251.65 649.769 253.445 653.258 253.445C654.564 253.459 655.858 253.185 657.046 252.642C657.314 253.195 657.724 253.667 658.235 254.007C658.746 254.348 659.339 254.545 659.953 254.579C660.566 254.612 661.177 254.481 661.722 254.199C662.268 253.916 662.728 253.493 663.054 252.973C663.38 252.452 663.561 251.854 663.578 251.24C663.595 250.626 663.447 250.019 663.15 249.482C662.852 248.944 662.417 248.496 661.887 248.184C661.358 247.872 660.755 247.708 660.141 247.708H660.156Z" fill="#3F3D56"/>
<path opacity="0.1" d="M660.44 253.73C659.793 253.73 659.159 253.547 658.612 253.202C658.064 252.857 657.625 252.365 657.346 251.781C656.157 252.324 654.864 252.598 653.557 252.584C650.075 252.584 647.251 250.788 647.251 248.569C647.24 248.436 647.24 248.301 647.251 248.168C647.043 248.557 646.933 248.99 646.93 249.431C646.93 251.62 649.754 253.445 653.243 253.445C654.55 253.459 655.843 253.185 657.032 252.642C657.346 253.294 657.858 253.83 658.495 254.174C659.131 254.518 659.86 254.652 660.578 254.557C661.295 254.462 661.964 254.144 662.49 253.647C663.016 253.15 663.371 252.499 663.506 251.788C663.228 252.367 662.794 252.855 662.252 253.199C661.71 253.542 661.082 253.726 660.44 253.73V253.73Z" fill="black"/>
<path opacity="0.1" d="M646.09 247.839C647.057 245.86 648.665 244.267 650.653 243.319C652.642 242.371 654.893 242.125 657.039 242.62C658.541 241.693 660.255 241.167 662.019 241.091C663.782 241.015 665.536 241.393 667.111 242.188C668.687 242.983 670.032 244.169 671.019 245.633C672.006 247.096 672.601 248.788 672.747 250.547C672.747 250.263 672.747 249.978 672.747 249.686C672.743 247.85 672.249 246.049 671.317 244.467C670.385 242.886 669.048 241.582 667.444 240.689C665.839 239.797 664.026 239.348 662.191 239.39C660.355 239.432 658.564 239.962 657.002 240.927C654.856 240.431 652.605 240.678 650.617 241.625C648.629 242.573 647.02 244.167 646.054 246.146C644.85 247.285 643.897 248.662 643.257 250.191C642.617 251.72 642.304 253.365 642.338 255.022C642.338 255.314 642.338 255.599 642.338 255.883C642.482 252.813 643.83 249.922 646.09 247.839Z" fill="black"/>
<path d="M348.905 310.423C348.914 309.304 348.661 308.197 348.165 307.193C347.67 306.189 346.946 305.316 346.051 304.642C346.04 302.663 345.33 300.752 344.047 299.245C342.763 297.739 340.989 296.734 339.036 296.409C338.735 294.97 338.06 293.636 337.08 292.541C336.1 291.445 334.849 290.627 333.453 290.168V290.168C333.114 290.062 332.767 289.981 332.416 289.927H332.314H332.131H331.985H331.825H331.628H331.182C329.243 289.972 327.382 290.701 325.928 291.986C324.475 293.272 323.523 295.029 323.241 296.949C320.679 296.358 318.336 297.124 317.905 298.744C317.797 299.175 317.823 299.628 317.978 300.044C318.416 301.299 319.839 302.504 321.745 303.095L321.993 303.168L322.365 303.263H322.445C322.038 304.128 321.829 305.073 321.832 306.029C321.826 307.203 322.144 308.355 322.75 309.359C323.357 310.364 324.229 311.182 325.27 311.723L325.102 311.825C324.865 312.041 324.676 312.304 324.547 312.599C324.087 313.413 323.726 314.281 323.474 315.182C323.292 315.956 323.263 316.759 323.036 317.526C322.613 318.934 321.533 320.124 321.409 321.591C321.35 322.248 321.46 323.051 320.993 323.474C320.878 323.574 320.753 323.662 320.62 323.737C320.297 323.966 320.022 324.256 319.81 324.591C319.67 324.895 319.477 325.172 319.241 325.409C318.817 325.723 318.124 325.693 317.92 326.182C317.715 326.672 318.248 327.248 318.124 327.781C318 328.314 317.547 328.416 317.219 328.715C316.837 329.126 316.568 329.629 316.438 330.175C315.747 330.307 315.036 330.285 314.355 330.111C313.674 329.937 313.039 329.615 312.496 329.168C312.682 329.639 312.819 330.128 312.905 330.628C312.27 330.143 311.549 329.781 310.781 329.562C309.916 329.169 309.145 328.597 308.518 327.883L309.73 327.715L304.38 319.547L302.796 319.219L304.212 321.942C304.093 321.996 303.989 322.075 303.905 322.175C303.822 322.275 303.762 322.392 303.73 322.518C303.655 322.821 303.637 323.136 303.679 323.445C303.751 324.183 303.873 324.914 304.044 325.635L304.453 327.547C304.489 327.723 304.533 327.905 304.584 328.08C304.05 328.054 303.515 328.113 303 328.255C301.939 327.861 300.833 327.599 299.708 327.474C299.467 327.425 299.219 327.425 298.978 327.474C298.705 327.604 298.468 327.796 298.285 328.036C297.363 329.105 296.544 330.259 295.839 331.482C292.92 336.489 289.117 340.861 285.518 345.387C283.037 346.394 280.533 347.35 278.029 348.307L272.642 350.365C271.592 350.842 270.453 351.09 269.299 351.095C268.788 351.095 268.153 350.985 267.839 351.423C267.699 351.651 267.588 351.897 267.511 352.153L266.956 352.212C266.701 351.335 266.26 350.524 265.664 349.832C265.533 349.855 265.409 349.909 265.303 349.99C265.198 350.072 265.114 350.178 265.058 350.299C264.927 350.54 264.847 350.803 264.693 351.029C264.409 351.453 263.905 351.657 263.547 352.015C263.19 352.372 262.964 352.927 262.569 353.292C262.032 353.689 261.401 353.941 260.737 354.022C259.737 354.255 258.772 354.621 257.869 355.109C257.538 355.317 257.182 355.481 256.81 355.599C256.399 355.679 255.978 355.694 255.562 355.642L252.715 355.431C252.46 355.399 252.2 355.411 251.949 355.467C251.663 355.584 251.422 355.788 251.259 356.05C251.096 356.312 251.021 356.619 251.044 356.927C251.081 357.236 251.18 357.535 251.335 357.805C251.491 358.074 251.7 358.31 251.949 358.496C252.441 358.86 252.988 359.143 253.569 359.336C256.033 360.295 258.572 361.047 261.161 361.584V362.161C262.972 363.074 264.972 363.549 267 363.547C267.15 363.558 267.301 363.53 267.438 363.467C267.624 363.328 267.754 363.125 267.803 362.898C268.408 361.087 268.791 359.21 268.942 357.307V357.307C269.298 357.283 269.647 357.194 269.971 357.044C270.949 356.774 271.927 357.445 272.942 357.555C274.19 357.693 275.343 356.964 276.526 356.518L277.037 356.35C276.7 356.783 276.301 357.165 275.854 357.482C275.365 357.832 274.818 358.095 274.343 358.46C273.941 358.824 273.512 359.156 273.058 359.453C272.739 359.6 272.409 359.727 272.073 359.832C271.575 360.017 271.102 360.262 270.664 360.562C270.276 360.793 269.948 361.114 269.708 361.496C269.588 361.692 269.518 361.914 269.504 362.143C269.49 362.372 269.533 362.601 269.628 362.81C269.729 362.981 269.865 363.127 270.027 363.241C270.19 363.354 270.375 363.431 270.569 363.467C270.954 363.526 271.345 363.526 271.73 363.467C273.277 363.35 274.818 363.212 276.358 363.073C277.009 363.032 277.656 362.939 278.292 362.796C278.628 362.715 278.964 362.606 279.299 362.511C279.876 362.365 280.465 362.277 281.058 362.248C281.23 362.235 281.403 362.252 281.569 362.299C281.927 362.416 282.182 362.781 282.547 362.854C282.795 362.885 283.046 362.853 283.277 362.759C284.402 362.517 285.55 362.394 286.701 362.394C287.204 362.394 287.796 362.27 288.029 361.803C288.263 361.336 287.839 360.584 287.65 359.964C287.552 359.567 287.498 359.16 287.489 358.752C287.401 357.746 287.113 356.769 286.642 355.876C286.389 355.46 286.176 355.02 286.007 354.562C288.215 353.723 290.327 352.652 292.307 351.365C293.391 350.579 294.607 349.994 295.898 349.635C297.422 349.453 298.967 349.633 300.409 350.161C303.918 351.178 307.371 352.381 310.752 353.766C312.365 354.431 313.971 355.131 315.635 355.635C316.12 356.286 316.707 356.855 317.372 357.321C318.522 357.968 319.813 358.321 321.131 358.35C322.891 358.511 324.657 358.577 326.423 358.547C327.776 358.606 329.123 358.357 330.365 357.818C330.661 357.669 330.938 357.486 331.19 357.27C331.666 357.311 332.146 357.246 332.595 357.081C333.044 356.915 333.451 356.654 333.788 356.314C334.745 355.494 335.434 354.406 335.766 353.19C336.197 351.526 335.869 349.54 336.89 348.212C337.161 347.847 337.518 347.555 337.788 347.19C338.115 346.69 338.279 346.101 338.255 345.504C338.267 345.48 338.282 345.458 338.299 345.438C338.523 344.902 338.671 344.337 338.737 343.759C338.863 343.305 339.021 342.861 339.212 342.431C339.73 341.143 340.184 339.83 340.569 338.496C340.833 337.61 341.042 336.708 341.197 335.796C341.307 335.066 341.372 334.336 341.431 333.606C341.508 332.456 341.731 331.32 342.095 330.226C343.009 327.623 343.525 324.896 343.628 322.139V321.978C344.973 321.824 346.211 321.172 347.1 320.151C347.988 319.13 348.463 317.813 348.431 316.46C348.431 315.647 348.259 314.844 347.927 314.102C348.573 312.984 348.91 311.715 348.905 310.423ZM322.788 342.153C322.869 342.438 322.963 342.715 323.058 342.993C322.628 342.577 322.212 342.146 321.781 341.723C321.949 341.781 322.124 341.832 322.285 341.898C322.453 341.967 322.615 342.052 322.766 342.153H322.788ZM320.723 340.752C318.197 338.562 315.277 336.861 312.693 334.737C314.102 335.431 315.474 336.241 316.832 337.015C318.443 337.934 320.075 338.817 321.73 339.664C321.458 340.088 321.109 340.457 320.701 340.752H320.723ZM321.796 335.234L321.92 335.109C321.92 335.423 321.92 335.708 321.92 335.978L321.241 335.745C321.429 335.585 321.607 335.415 321.774 335.234H321.796ZM299.584 341.146C300.62 339.973 301.521 338.688 302.27 337.314C303.27 339.058 304.898 340.321 306.277 341.788C304.051 341.504 301.818 341.263 299.584 341.146Z" fill="url(#paint1_linear)"/>
<path d="M303.175 319.891L304.766 320.212L310.19 328.234L307.803 328.555L303.175 319.891Z" fill="#2F2E41"/>
<path d="M264.591 352.431C265.023 353.846 265.555 355.229 266.183 356.569C267.98 356.19 269.748 355.685 271.474 355.058C271.134 354.552 270.766 354.065 270.372 353.599C269.944 353.132 269.438 352.745 268.876 352.453C268.278 352.317 267.657 352.317 267.058 352.453C266.241 352.431 265.416 352.445 264.591 352.431Z" fill="#FBBEBE"/>
<path d="M268.883 354.569C268.452 354.376 268.067 354.092 267.754 353.737C267.442 353.382 267.21 352.964 267.073 352.511C266.795 351.602 266.324 350.763 265.693 350.051C265.561 350.069 265.435 350.121 265.327 350.202C265.22 350.282 265.135 350.388 265.08 350.511C264.949 350.745 264.869 351.007 264.723 351.241C264.431 351.657 263.92 351.861 263.555 352.212C263.19 352.562 262.971 353.11 262.577 353.467C262.035 353.866 261.398 354.118 260.73 354.197C259.714 354.426 258.733 354.787 257.81 355.27C257.473 355.472 257.112 355.634 256.737 355.752C256.321 355.814 255.898 355.814 255.482 355.752L252.606 355.547C252.364 355.508 252.118 355.508 251.876 355.547C251.582 355.654 251.333 355.855 251.167 356.12C251.002 356.384 250.93 356.697 250.964 357.007C250.998 357.315 251.096 357.612 251.254 357.879C251.411 358.146 251.623 358.376 251.876 358.555C252.376 358.914 252.927 359.194 253.511 359.387C256.015 360.33 258.593 361.062 261.219 361.577V362.146C263.048 363.044 265.058 363.511 267.095 363.511C267.245 363.52 267.394 363.495 267.533 363.438C267.719 363.299 267.849 363.096 267.898 362.869C268.59 360.853 268.995 358.749 269.102 356.62C269.149 356.08 269.107 355.535 268.978 355.007C268.818 354.489 269.358 354.708 268.861 354.504" fill="#2F2E41"/>
<path d="M324.036 343.73C315.511 344.241 307.088 341.745 298.547 341.482C297.487 341.412 296.423 341.478 295.38 341.679C294.293 341.973 293.241 342.382 292.241 342.898C287.664 345.029 282.927 346.796 278.197 348.555L272.759 350.577C271.701 351.054 270.555 351.303 269.394 351.307C268.876 351.307 268.241 351.197 267.934 351.628C267.051 352.942 267.467 354.861 268.051 356.336C268.241 356.81 268.562 357.328 269.073 357.38C269.432 357.355 269.783 357.266 270.109 357.117C271.095 356.854 272.08 357.518 273.102 357.628C274.358 357.759 275.526 357.044 276.715 356.606C278.686 355.876 280.832 355.876 282.905 355.555C286.372 354.978 289.591 353.365 292.599 351.533C293.692 350.754 294.915 350.175 296.212 349.825C297.747 349.644 299.304 349.821 300.759 350.343C304.296 351.341 307.778 352.525 311.19 353.891C312.964 354.663 314.782 355.328 316.635 355.883C320.68 356.941 324.957 356.686 328.847 355.153C330.212 354.613 331.693 353.693 331.766 352.19C331.818 351.35 331.161 350.613 330.73 349.891C330.453 349.431 330.168 348.971 329.869 348.526C328.409 346.409 326.628 343.577 324.036 343.73Z" fill="#2F2E41"/>
<path opacity="0.1" d="M324.036 343.73C315.511 344.241 307.088 341.745 298.547 341.482C297.487 341.412 296.423 341.478 295.38 341.679C294.293 341.973 293.241 342.382 292.241 342.898C287.664 345.029 282.927 346.796 278.197 348.555L272.759 350.577C271.701 351.054 270.555 351.303 269.394 351.307C268.876 351.307 268.241 351.197 267.934 351.628C267.051 352.942 267.467 354.861 268.051 356.336C268.241 356.81 268.562 357.328 269.073 357.38C269.432 357.355 269.783 357.266 270.109 357.117C271.095 356.854 272.08 357.518 273.102 357.628C274.358 357.759 275.526 357.044 276.715 356.606C278.686 355.876 280.832 355.876 282.905 355.555C286.372 354.978 289.591 353.365 292.599 351.533C293.692 350.754 294.915 350.175 296.212 349.825C297.747 349.644 299.304 349.821 300.759 350.343C304.296 351.341 307.778 352.525 311.19 353.891C312.964 354.663 314.782 355.328 316.635 355.883C320.68 356.941 324.957 356.686 328.847 355.153C330.212 354.613 331.693 353.693 331.766 352.19C331.818 351.35 331.161 350.613 330.73 349.891C330.453 349.431 330.168 348.971 329.869 348.526C328.409 346.409 326.628 343.577 324.036 343.73Z" fill="black"/>
<path d="M280.964 352.825C282.297 353.277 283.642 353.696 285 354.08C285.73 352.832 287.19 351.963 287.504 350.533C287.522 350.471 287.522 350.405 287.504 350.343C287.468 350.282 287.414 350.234 287.35 350.204C286.374 349.669 285.293 349.352 284.182 349.277C283.307 349.226 282.905 350.139 282.511 350.781C282.358 351.066 281.321 352.963 280.964 352.825Z" fill="#FBBEBE"/>
<path d="M282.832 351.934C282.433 351.867 282.053 351.717 281.715 351.495C281.377 351.272 281.089 350.982 280.869 350.642C280.686 350.314 280.482 349.869 280.102 349.912C279.723 349.956 279.599 350.35 279.518 350.693C279.266 351.987 278.897 353.255 278.416 354.482C277.934 355.715 277.118 356.79 276.058 357.584C275.562 357.927 275.015 358.183 274.526 358.547C274.121 358.906 273.689 359.233 273.234 359.526C272.911 359.67 272.58 359.792 272.241 359.891C271.742 360.078 271.267 360.323 270.825 360.62C270.431 360.847 270.098 361.165 269.854 361.547C269.733 361.739 269.663 361.958 269.651 362.184C269.638 362.41 269.683 362.636 269.781 362.839C269.883 363.007 270.02 363.152 270.182 363.262C270.345 363.373 270.529 363.448 270.723 363.482C271.112 363.54 271.508 363.54 271.898 363.482C273.453 363.372 275.007 363.234 276.562 363.095C277.217 363.053 277.869 362.962 278.511 362.825L279.526 362.547C280.105 362.394 280.7 362.306 281.299 362.285C281.474 362.269 281.65 362.286 281.818 362.336C282.175 362.453 282.431 362.81 282.803 362.883C283.05 362.907 283.3 362.875 283.533 362.788C284.667 362.545 285.825 362.425 286.985 362.431C287.496 362.431 288.095 362.299 288.328 361.847C288.62 361.277 288.139 360.642 287.942 360.029C287.847 359.639 287.794 359.241 287.781 358.839C287.694 357.847 287.403 356.883 286.927 356.007C286.533 355.277 285.993 354.474 286.27 353.701C286.408 353.455 286.497 353.185 286.533 352.905C286.423 351.65 283.547 352.095 282.832 351.934Z" fill="#2F2E41"/>
<path d="M311.255 330.051C309.743 329.388 308.53 328.186 307.854 326.679C307.715 326.358 307.599 326.015 307.46 325.693C307.015 324.606 306.319 323.638 305.431 322.869C305.337 322.769 305.224 322.69 305.098 322.636C304.973 322.582 304.837 322.554 304.701 322.555C304.565 322.596 304.443 322.672 304.347 322.776C304.25 322.88 304.184 323.008 304.153 323.146C304.072 323.443 304.052 323.753 304.095 324.058C304.169 324.776 304.291 325.488 304.46 326.19L304.876 328.073C304.931 328.361 305.017 328.642 305.131 328.912C305.309 329.228 305.545 329.508 305.825 329.737C306.204 330.088 306.591 330.423 306.978 330.759C307.202 330.954 307.447 331.123 307.708 331.263C308.116 331.457 308.552 331.585 309 331.642C310.742 331.869 312.404 332.51 313.847 333.511C313.847 333.511 313.847 332.248 313.847 332.109C313.828 331.743 313.701 331.389 313.482 331.095C312.813 330.608 312.057 330.254 311.255 330.051V330.051Z" fill="#FBBEBE"/>
<path opacity="0.1" d="M311.255 330.051C309.743 329.388 308.53 328.186 307.854 326.679C307.715 326.358 307.599 326.015 307.46 325.693C307.015 324.606 306.319 323.638 305.431 322.869C305.337 322.769 305.224 322.69 305.098 322.636C304.973 322.582 304.837 322.554 304.701 322.555C304.565 322.596 304.443 322.672 304.347 322.776C304.25 322.88 304.184 323.008 304.153 323.146C304.072 323.443 304.052 323.753 304.095 324.058C304.169 324.776 304.291 325.488 304.46 326.19L304.876 328.073C304.931 328.361 305.017 328.642 305.131 328.912C305.309 329.228 305.545 329.508 305.825 329.737C306.204 330.088 306.591 330.423 306.978 330.759C307.202 330.954 307.447 331.123 307.708 331.263C308.116 331.457 308.552 331.585 309 331.642C310.742 331.869 312.404 332.51 313.847 333.511C313.847 333.511 313.847 332.248 313.847 332.109C313.828 331.743 313.701 331.389 313.482 331.095C312.813 330.608 312.057 330.254 311.255 330.051V330.051Z" fill="black"/>
<path d="M328.613 315.642C329.758 315.642 330.686 314.708 330.686 313.555C330.686 312.402 329.758 311.467 328.613 311.467C327.468 311.467 326.54 312.402 326.54 313.555C326.54 314.708 327.468 315.642 328.613 315.642Z" fill="#2F2E41"/>
<path d="M327.328 312.299C326.774 312.166 326.189 312.25 325.693 312.533C325.454 312.746 325.263 313.007 325.131 313.299C324.667 314.098 324.304 314.951 324.051 315.839C323.869 316.569 323.839 317.394 323.606 318.146C323.182 319.533 322.095 320.708 321.971 322.153C321.912 322.803 322.022 323.562 321.547 324C321.431 324.101 321.307 324.191 321.175 324.27C320.847 324.489 320.568 324.775 320.358 325.11C320.215 325.407 320.019 325.677 319.781 325.905C319.358 326.219 318.657 326.19 318.453 326.635C318.248 327.08 318.781 327.686 318.657 328.212C318.533 328.737 318.073 328.839 317.745 329.131C317.358 329.54 317.086 330.044 316.956 330.591C316.262 330.725 315.548 330.706 314.862 330.536C314.177 330.366 313.536 330.048 312.985 329.606C313.467 331.069 313.677 332.607 313.606 334.146C313.642 334.392 313.629 334.643 313.566 334.884C313.503 335.125 313.393 335.35 313.241 335.547C314.888 335.67 316.518 335.954 318.109 336.394C318.799 336.624 319.544 336.624 320.234 336.394C320.603 336.196 320.934 335.934 321.212 335.62C322.088 334.73 323.007 333.759 323.219 332.526C323.271 331.829 323.284 331.129 323.255 330.431C323.339 329.564 323.517 328.71 323.788 327.883C324.25 326.167 324.561 324.413 324.715 322.642C324.81 321.547 325.759 320.672 326.255 319.723C327.19 317.876 328.153 315.956 328.219 313.883C328.248 313.212 328.015 312.372 327.328 312.299Z" fill="#2F2E41"/>
<path opacity="0.1" d="M327.328 312.299C326.774 312.166 326.189 312.25 325.693 312.533C325.454 312.746 325.263 313.007 325.131 313.299C324.667 314.098 324.304 314.951 324.051 315.839C323.869 316.569 323.839 317.394 323.606 318.146C323.182 319.533 322.095 320.708 321.971 322.153C321.912 322.803 322.022 323.562 321.547 324C321.431 324.101 321.307 324.191 321.175 324.27C320.847 324.489 320.568 324.775 320.358 325.11C320.215 325.407 320.019 325.677 319.781 325.905C319.358 326.219 318.657 326.19 318.453 326.635C318.248 327.08 318.781 327.686 318.657 328.212C318.533 328.737 318.073 328.839 317.745 329.131C317.358 329.54 317.086 330.044 316.956 330.591C316.262 330.725 315.548 330.706 314.862 330.536C314.177 330.366 313.536 330.048 312.985 329.606C313.467 331.069 313.677 332.607 313.606 334.146C313.642 334.392 313.629 334.643 313.566 334.884C313.503 335.125 313.393 335.35 313.241 335.547C314.888 335.67 316.518 335.954 318.109 336.394C318.799 336.624 319.544 336.624 320.234 336.394C320.603 336.196 320.934 335.934 321.212 335.62C322.088 334.73 323.007 333.759 323.219 332.526C323.271 331.829 323.284 331.129 323.255 330.431C323.339 329.564 323.517 328.71 323.788 327.883C324.25 326.167 324.561 324.413 324.715 322.642C324.81 321.547 325.759 320.672 326.255 319.723C327.19 317.876 328.153 315.956 328.219 313.883C328.248 313.212 328.015 312.372 327.328 312.299Z" fill="black"/>
<path d="M325.387 345.526C323.613 344.679 322.314 343.11 320.876 341.759C318.139 339.183 314.788 337.38 311.905 334.949C309.993 333.35 308.255 331.489 306.19 330.146C304.339 328.973 302.244 328.241 300.066 328.007C299.826 327.952 299.576 327.952 299.336 328.007C299.06 328.125 298.82 328.314 298.642 328.555C297.711 329.605 296.883 330.741 296.168 331.949C292.518 338.153 287.328 343.365 283.029 349.131C282.93 349.251 282.858 349.39 282.818 349.54C282.799 349.764 282.856 349.987 282.978 350.175L283.854 351.883C284.343 352.847 285.131 353.964 286.182 353.774C286.656 353.637 287.079 353.365 287.401 352.993L291.328 349.234L295.445 345.299C297.854 343 300.307 340.642 301.883 337.693C303.109 339.825 305.292 341.219 306.781 343.168C307.35 343.898 307.818 344.723 308.328 345.511C309.139 346.766 310.066 347.949 310.985 349.161L315.708 355.182C316.307 356.033 317.047 356.774 317.898 357.372C319.062 358.006 320.361 358.354 321.686 358.387C323.46 358.545 325.241 358.608 327.022 358.577C328.386 358.632 329.745 358.382 331 357.847C331.626 357.572 332.16 357.124 332.542 356.557C332.923 355.99 333.135 355.326 333.153 354.642C333.081 353.935 332.848 353.254 332.474 352.65C330.766 349.606 328.562 347.037 325.387 345.526Z" fill="#2F2E41"/>
<path d="M329.891 316.606C330.773 316.606 331.489 315.887 331.489 315C331.489 314.113 330.773 313.394 329.891 313.394C329.008 313.394 328.292 314.113 328.292 315C328.292 315.887 329.008 316.606 329.891 316.606Z" fill="#E8E8F0"/>
<path d="M329.54 313.796C329.897 314.512 329.96 315.34 329.715 316.102C329.463 316.851 329.117 317.565 328.686 318.226C328.315 318.908 327.867 319.545 327.35 320.124C329.818 320.241 332.204 319.277 334.372 318.11C336.124 317.168 337.869 316.007 338.803 314.248C338.524 314.315 338.235 314.322 337.953 314.269C337.671 314.216 337.404 314.104 337.168 313.942C336.697 313.618 336.277 313.227 335.92 312.781L334.686 311.394C334.406 311.089 334.161 310.754 333.956 310.394C333.685 309.902 333.571 309.34 333.628 308.781C333.136 309.294 332.587 309.749 331.993 310.139C331.109 310.715 330.139 311.131 329.248 311.701C328.942 311.905 328.241 312.226 328.423 312.635C328.606 313.044 329.292 313.358 329.54 313.796Z" fill="#FBBEBE"/>
<path opacity="0.1" d="M329.54 313.796C329.897 314.512 329.96 315.34 329.715 316.102C329.463 316.851 329.117 317.565 328.686 318.226C328.315 318.908 327.867 319.545 327.35 320.124C329.818 320.241 332.204 319.277 334.372 318.11C336.124 317.168 337.869 316.007 338.803 314.248C338.524 314.315 338.235 314.322 337.953 314.269C337.671 314.216 337.404 314.104 337.168 313.942C336.697 313.618 336.277 313.227 335.92 312.781L334.686 311.394C334.406 311.089 334.161 310.754 333.956 310.394C333.685 309.902 333.571 309.34 333.628 308.781C333.136 309.294 332.587 309.749 331.993 310.139C331.109 310.715 330.139 311.131 329.248 311.701C328.942 311.905 328.241 312.226 328.423 312.635C328.606 313.044 329.292 313.358 329.54 313.796Z" fill="black"/>
<path d="M329.569 314.036C329.319 314.388 329.185 314.809 329.185 315.241C329.185 315.672 329.319 316.093 329.569 316.445C329.642 316.533 329.905 317.08 330.015 317.088C330.068 317.083 330.12 317.068 330.168 317.043C330.216 317.018 330.258 316.983 330.292 316.942C330.853 316.356 331.375 315.735 331.854 315.08C332.343 314.428 333.046 313.968 333.839 313.781C334.823 313.743 335.789 314.045 336.577 314.635C336.943 314.802 337.265 315.052 337.518 315.365C337.694 315.687 337.799 316.043 337.825 316.409C338.063 318.612 338.156 320.828 338.102 323.044C338.144 324.644 338.039 326.244 337.788 327.825C337.628 328.635 337.394 329.431 337.285 330.255C337.199 330.982 337.165 331.714 337.182 332.445V335.496C337.163 336.056 337.202 336.616 337.299 337.168C337.445 337.832 337.759 338.453 337.971 339.102C338.189 339.848 338.338 340.613 338.416 341.387L338.832 344.54C338.963 345.533 339.066 346.62 338.46 347.46C338.19 347.818 337.832 348.11 337.555 348.467C336.526 349.81 336.825 351.73 336.423 353.372C336.085 354.574 335.387 355.644 334.423 356.438C334.08 356.778 333.666 357.039 333.21 357.201C332.755 357.364 332.27 357.425 331.788 357.38C330.504 357.139 329.737 355.803 329.387 354.54C329.037 353.277 328.912 351.905 328.153 350.839C327.457 350.033 326.633 349.345 325.715 348.803C324.787 348.253 324.105 347.367 323.81 346.328C323.73 345.869 323.81 345.394 323.73 344.927C323.661 344.339 323.436 343.78 323.078 343.309C322.72 342.838 322.242 342.472 321.693 342.248C321.037 341.993 320.234 341.898 319.854 341.299C320.794 340.711 321.479 339.791 321.774 338.723C322.064 337.661 322.221 336.567 322.241 335.467L322.46 331.817C322.562 330.175 322.606 328.555 323.328 327.08C323.65 326.423 324.058 325.803 324.387 325.153C324.832 324.24 325.21 323.296 325.518 322.328C326.044 320.825 326.569 319.321 327.037 317.803C327.219 317.066 327.499 316.356 327.869 315.693C328.263 315.007 328.832 314.182 329.569 314.036Z" fill="#E8E8F0"/>
<path d="M321.431 337.861H322.401L322.606 336.402C322.632 336.108 322.701 335.821 322.81 335.547C322.971 335.257 323.159 334.984 323.372 334.73C324.321 333.38 324.255 331.591 324.489 329.949C324.912 327.779 325.629 325.677 326.62 323.701L328.504 319.504C328.675 319.16 328.812 318.801 328.912 318.431C328.991 318.022 329.03 317.606 329.029 317.19C329.029 316.54 329.234 314.175 329.255 313.54C329.255 313.299 328.723 313.431 328.613 313.219C328.38 312.752 328.058 314.015 327.613 314.292C327.195 314.611 326.89 315.057 326.745 315.562C326.336 316.613 326.088 317.752 325.708 318.796C325.378 319.885 324.772 320.871 323.949 321.657C323.562 321.993 323.117 322.263 322.752 322.628C321.584 323.781 321.467 325.613 321.431 327.263C321.401 328.27 321.212 337.861 321.431 337.861Z" fill="#2F2E41"/>
<path d="M335.401 312.292C334.95 312.528 334.559 312.865 334.259 313.276C333.959 313.688 333.758 314.162 333.672 314.664C333.505 315.671 333.21 316.652 332.796 317.584C331.613 319.642 328.599 320.241 327.759 322.467C327.548 323.216 327.435 323.989 327.423 324.766C327.277 326.365 326.752 327.905 326.591 329.496C326.511 330.735 326.54 331.978 326.679 333.212L327.737 345.781C327.94 347.63 327.834 349.5 327.423 351.314C328.508 351.469 329.614 351.285 330.591 350.788C331.577 350.336 332.482 349.715 333.438 349.19C335.073 348.285 336.883 347.65 338.321 346.445C338.579 346.24 338.801 345.993 338.978 345.715C339.198 345.188 339.345 344.633 339.416 344.066C339.54 343.621 339.699 343.187 339.891 342.766C340.417 341.498 340.875 340.201 341.263 338.883C341.526 338.011 341.736 337.124 341.891 336.226C342.007 335.496 342.073 334.766 342.131 334.037C342.208 332.905 342.433 331.788 342.803 330.715C343.719 328.152 344.238 325.464 344.343 322.745C344.371 322.353 344.344 321.96 344.263 321.577C344.102 321.107 343.887 320.659 343.62 320.241C343.182 319.416 342.891 318.511 342.511 317.672C341.476 315.823 339.992 314.264 338.197 313.139C337.35 312.562 336.358 311.949 335.401 312.292Z" fill="#2F2E41"/>
<path d="M313.35 332.803C312.601 332.41 311.923 331.894 311.343 331.277C311.08 330.971 310.861 330.628 310.613 330.321C309.936 329.593 309.056 329.084 308.088 328.861C307.129 328.651 306.149 328.555 305.168 328.577C304.509 328.532 303.848 328.612 303.219 328.81C302.905 328.915 302.622 329.097 302.397 329.34C302.171 329.582 302.01 329.877 301.927 330.197C301.901 330.594 301.977 330.991 302.15 331.349C302.323 331.707 302.585 332.015 302.912 332.241C303.482 332.709 304.155 333.034 304.876 333.19C305.463 333.294 306.055 333.365 306.65 333.401C310.139 333.766 313.255 335.664 316.314 337.394C319 338.922 321.74 340.343 324.533 341.657C324.641 340.822 324.687 339.98 324.672 339.139C324.672 338.511 324.62 337.547 324.029 337.175C323.188 336.823 322.312 336.561 321.416 336.394C319.615 335.806 317.856 335.094 316.153 334.263C315.19 333.847 314.263 333.336 313.35 332.803Z" fill="#FBBEBE"/>
<path d="M328.613 313.08C332.048 313.08 334.832 310.28 334.832 306.825C334.832 303.37 332.048 300.569 328.613 300.569C325.179 300.569 322.394 303.37 322.394 306.825C322.394 310.28 325.179 313.08 328.613 313.08Z" fill="#FBBEBE"/>
<path d="M337.175 319.38C336.679 320.077 336.274 320.835 335.971 321.635C335.241 323.212 334 324.555 333.394 326.226C332.788 327.898 332.781 330.044 331.533 331.409C331.283 331.618 331.094 331.89 330.985 332.197C330.98 332.388 330.961 332.578 330.927 332.766C330.745 333.263 329.934 333.285 329.781 333.796C329.737 333.942 329.781 334.102 329.708 334.248C329.584 334.577 329.146 334.628 328.861 334.825C328.255 335.234 328.38 336.183 327.949 336.774C327.761 336.994 327.518 337.161 327.245 337.257C326.972 337.353 326.679 337.375 326.394 337.321C325.828 337.206 325.283 337.001 324.781 336.715C324.6 336.616 324.402 336.554 324.197 336.533C323.955 336.541 323.721 336.623 323.526 336.766C322.975 337.172 322.534 337.707 322.241 338.325C321.948 338.943 321.812 339.624 321.847 340.307C321.93 341.674 322.257 343.016 322.81 344.27C322.872 344.487 322.979 344.689 323.124 344.861C323.341 345.032 323.605 345.134 323.88 345.155C324.156 345.176 324.431 345.114 324.672 344.978C325.148 344.695 325.655 344.468 326.182 344.299C327.146 344.124 328.088 344.788 329.066 344.73C329.778 344.625 330.449 344.33 331.007 343.876C331.99 343.29 332.872 342.551 333.62 341.686C334.044 341.124 334.35 340.489 334.73 339.891C335.213 339.163 335.737 338.464 336.299 337.796L339.891 333.416C340.247 333 340.569 332.556 340.854 332.088C341.173 331.449 341.418 330.775 341.584 330.08C341.968 328.924 342.213 327.725 342.314 326.511C342.336 325.507 342.248 324.503 342.051 323.518C341.942 322.538 341.696 321.577 341.321 320.664C340.54 319.015 338.642 317.672 337.175 319.38Z" fill="#2F2E41"/>
<path d="M349.672 311.219C349.677 310.11 349.419 309.016 348.919 308.026C348.419 307.036 347.691 306.179 346.796 305.526C346.766 303.556 346.04 301.66 344.745 300.175C343.45 298.69 341.67 297.713 339.723 297.416C339.348 295.548 338.326 293.873 336.836 292.685C335.347 291.498 333.486 290.875 331.581 290.927C329.677 290.978 327.852 291.701 326.429 292.967C325.006 294.233 324.076 295.961 323.803 297.847C321.219 297.263 318.854 298.022 318.423 299.613C317.993 301.204 319.818 303.263 322.54 303.993C323.399 304.233 324.293 304.322 325.182 304.256C325.816 305.19 326.639 305.981 327.597 306.578C328.554 307.175 329.627 307.565 330.745 307.723C331.076 309.227 331.819 310.61 332.892 311.716C333.964 312.822 335.324 313.608 336.818 313.985C337.233 314.983 337.876 315.87 338.693 316.577C338.693 316.774 338.693 316.978 338.693 317.183C338.693 317.874 338.83 318.558 339.094 319.197C339.359 319.835 339.746 320.415 340.235 320.904C340.724 321.393 341.304 321.78 341.942 322.045C342.581 322.309 343.265 322.445 343.956 322.445C344.647 322.445 345.332 322.309 345.97 322.045C346.609 321.78 347.189 321.393 347.678 320.904C348.166 320.415 348.554 319.835 348.818 319.197C349.083 318.558 349.219 317.874 349.219 317.183C349.219 316.379 349.048 315.585 348.715 314.854C349.358 313.751 349.688 312.495 349.672 311.219V311.219Z" fill="#F86D70"/>
<path opacity="0.1" d="M320.175 299.949C320.606 298.358 322.971 297.599 325.555 298.182C325.861 296.267 326.835 294.522 328.305 293.255C329.774 291.989 331.644 291.283 333.584 291.263H334.117C333.374 291.037 332.601 290.921 331.825 290.92C329.885 290.94 328.015 291.646 326.546 292.912C325.076 294.179 324.102 295.924 323.796 297.839C321.212 297.255 318.847 298.015 318.416 299.606C317.985 301.197 319.81 303.255 322.533 303.985C323.043 304.127 323.567 304.217 324.095 304.255C321.489 303.474 319.745 301.577 320.175 299.949Z" fill="black"/>
<path opacity="0.1" d="M340.416 317.489C340.405 317.29 340.405 317.09 340.416 316.891C339.594 316.188 338.951 315.3 338.54 314.299C337.044 313.924 335.683 313.138 334.61 312.03C333.537 310.922 332.795 309.536 332.467 308.029C331.348 307.875 330.274 307.487 329.315 306.891C328.356 306.295 327.532 305.504 326.898 304.569C326.38 304.613 325.858 304.598 325.343 304.526C325.982 305.385 326.786 306.11 327.706 306.657C328.627 307.205 329.647 307.564 330.708 307.715C331.039 309.22 331.783 310.603 332.855 311.709C333.928 312.815 335.287 313.601 336.781 313.978C337.197 314.976 337.839 315.863 338.657 316.569C338.657 316.766 338.657 316.971 338.657 317.175C338.633 318.59 339.171 319.957 340.151 320.977C341.132 321.997 342.476 322.588 343.891 322.62C342.858 322.22 341.973 321.514 341.352 320.597C340.731 319.68 340.405 318.596 340.416 317.489V317.489Z" fill="black"/>
<path d="M331.465 309.121C331.886 308.802 331.881 308.087 331.454 307.525C331.027 306.964 330.34 306.767 329.92 307.087C329.499 307.406 329.504 308.12 329.931 308.682C330.358 309.244 331.045 309.441 331.465 309.121Z" fill="#FBBEBE"/>
<defs>
<linearGradient id="paint0_linear" x1="661.302" y1="363.591" x2="661.302" y2="237.956" gradientUnits="userSpaceOnUse">
<stop stop-color="#808080" stop-opacity="0.25"/>
<stop offset="0.54" stop-color="#808080" stop-opacity="0.12"/>
<stop offset="1" stop-color="#808080" stop-opacity="0.1"/>
</linearGradient>
<linearGradient id="paint1_linear" x1="45554" y1="48930.8" x2="45554" y2="41495.7" gradientUnits="userSpaceOnUse">
<stop stop-color="#808080" stop-opacity="0.25"/>
<stop offset="0.54" stop-color="#808080" stop-opacity="0.12"/>
<stop offset="1" stop-color="#808080" stop-opacity="0.1"/>
</linearGradient>
</defs>
</svg>
