<svg width="1440" height="1024" viewBox="0 0 1440 1024" fill="none" xmlns="http://www.w3.org/2000/svg">
<path opacity="0.1" d="M804.45 1021.92C1045.7 1021.92 1241.27 1011.98 1241.27 999.706C1241.27 987.436 1045.7 977.487 804.45 977.487C563.203 977.487 367.635 987.436 367.635 999.706C367.635 1011.98 563.203 1021.92 804.45 1021.92Z" fill="#6C63FF"/>
<path d="M852.679 969.565V979.891H551.152V971.506C569.541 964.607 585.493 952.341 596.992 936.257C608.492 920.174 615.019 900.998 615.75 881.155C616.479 861.314 611.379 841.699 601.093 824.792C590.809 807.888 575.801 794.453 557.97 786.188H850.673C837.221 792.439 825.322 801.657 815.848 813.169C806.372 824.68 799.56 838.191 795.909 852.713C791.006 872.264 792.036 892.857 798.864 911.806C805.693 930.754 818.004 947.179 834.191 958.937C839.961 963.141 846.159 966.704 852.679 969.565Z" fill="#C8CAD7"/>
<path opacity="0.1" d="M850.672 786.188C837.221 792.439 825.322 801.657 815.848 813.169C806.372 824.68 799.56 838.191 795.909 852.713H612.759C609.109 838.191 602.297 824.68 592.821 813.169C583.346 801.657 571.447 792.439 557.996 786.188H850.672Z" fill="black"/>
<path d="M205.892 733.591V791.549C205.892 823.549 229.022 849.492 257.563 849.492H1144.68C1173.22 849.492 1196.35 823.549 1196.35 791.549V733.591H205.892Z" fill="#C8CAD7"/>
<path opacity="0.1" d="M852.679 969.565V979.889H551.152V971.506C559.421 968.391 567.244 964.174 574.412 958.964H834.191C839.961 963.158 846.159 966.713 852.679 969.565Z" fill="black"/>
<path d="M939.921 962.185H463.897C457.057 962.185 451.511 967.801 451.511 974.727V980.234C451.511 987.16 457.057 992.776 463.897 992.776H939.921C946.761 992.776 952.307 987.16 952.307 980.234V974.727C952.307 967.801 946.761 962.185 939.921 962.185Z" fill="#C8CAD7"/>
<path d="M1196.35 98.5281C1196.35 84.6531 1190.9 71.3444 1181.21 61.5325C1171.52 51.7206 1158.38 46.2083 1144.68 46.2083H257.563C243.861 46.2083 230.717 51.7206 221.027 61.5325C211.337 71.3444 205.892 84.6531 205.892 98.5281V744.865H1196.35V98.5281Z" fill="#474157"/>
<path d="M1169.32 121.923V677.243C1169.32 680.627 1168.67 683.976 1167.39 687.104C1166.11 690.229 1164.23 693.068 1161.87 695.461C1159.51 697.853 1156.7 699.751 1153.62 701.044C1150.53 702.338 1147.22 703.004 1143.88 703.002H258.347C255.006 703.004 251.696 702.338 248.61 701.044C245.522 699.751 242.717 697.853 240.354 695.461C237.992 693.068 236.119 690.229 234.842 687.104C233.563 683.976 232.907 680.627 232.909 677.243V121.923C232.909 115.092 235.588 108.541 240.358 103.709C245.13 98.8788 251.599 96.1656 258.347 96.1656H1143.88C1150.63 96.1656 1157.1 98.8788 1161.87 103.709C1166.64 108.541 1169.32 115.092 1169.32 121.923Z" fill="#F4F4F7"/>
<path d="M701.121 83.2544C707.709 83.2544 713.051 77.845 713.051 71.1738C713.051 64.5021 707.709 59.0937 701.121 59.0937C694.532 59.0937 689.19 64.5021 689.19 71.1738C689.19 77.845 694.532 83.2544 701.121 83.2544Z" fill="white"/>
<path d="M701.121 823.748C717.366 823.748 730.536 810.413 730.536 793.964C730.536 777.514 717.366 764.179 701.121 764.179C684.876 764.179 671.706 777.514 671.706 793.964C671.706 810.413 684.876 823.748 701.121 823.748Z" fill="white"/>
<path d="M1169.32 121.923H232.922C232.92 118.54 233.576 115.191 234.853 112.068C236.13 108.942 238.003 106.101 240.364 103.711C242.724 101.318 245.527 99.4207 248.614 98.1269C251.698 96.8313 255.006 96.1657 258.347 96.1657H1143.88C1147.22 96.1638 1150.53 96.8294 1153.62 98.1232C1156.7 99.4169 1159.51 101.313 1161.87 103.705C1164.23 106.098 1166.11 108.938 1167.39 112.064C1168.67 115.189 1169.32 118.54 1169.32 121.923Z" fill="white"/>
<path d="M258.347 115.441C261.861 115.441 264.709 112.555 264.709 108.998C264.709 105.439 261.861 102.556 258.347 102.556C254.831 102.556 251.983 105.439 251.983 108.998C251.983 112.555 254.831 115.441 258.347 115.441Z" fill="#EDEDF4"/>
<path d="M277.421 115.441C280.935 115.441 283.785 112.555 283.785 108.998C283.785 105.439 280.935 102.556 277.421 102.556C273.907 102.556 271.059 105.439 271.059 108.998C271.059 112.555 273.907 115.441 277.421 115.441Z" fill="#EDEDF4"/>
<path d="M296.511 115.441C300.024 115.441 302.872 112.555 302.872 108.998C302.872 105.439 300.024 102.556 296.511 102.556C292.995 102.556 290.147 105.439 290.147 108.998C290.147 112.555 292.995 115.441 296.511 115.441Z" fill="#EDEDF4"/>
<path d="M1076.81 193.214H321.075V640.397H1076.81V193.214Z" fill="white"/>
<path d="M450.195 571.099H478.057V576.379H450.195V571.099ZM464.132 556.986C464.629 556.982 465.12 556.872 465.57 556.662C466.022 556.45 466.421 556.144 466.747 555.764C467.072 555.383 467.312 554.937 467.451 554.455C467.591 553.973 467.629 553.465 467.559 552.968C467.49 552.469 467.316 551.993 467.049 551.569C466.783 551.146 466.429 550.784 466.014 550.508C465.598 550.234 465.129 550.052 464.638 549.976C464.147 549.901 463.646 549.931 463.168 550.067L455.906 544.694L455.475 545.091L460.794 552.432C460.701 552.766 460.652 553.112 460.652 553.461C460.65 553.924 460.738 554.384 460.912 554.811C461.087 555.241 461.344 555.629 461.668 555.957C461.991 556.285 462.375 556.544 462.799 556.722C463.222 556.898 463.674 556.988 464.132 556.986Z" fill="#65617D"/>
<path d="M464.132 530.528C459.889 530.528 455.732 531.736 452.134 534.012C448.534 536.29 445.641 539.543 443.779 543.406C441.919 547.266 441.167 551.581 441.609 555.854C442.052 560.127 443.672 564.188 446.284 567.574H452.685L453.127 567.124L455.527 564.696L452.998 562.174L450.598 564.589C448.438 561.921 447.103 558.664 446.766 555.229H450.156V551.691H446.766C447.103 548.256 448.438 545.001 450.598 542.331L452.998 544.748L455.488 542.226L453.101 539.796C455.739 537.608 458.955 536.258 462.347 535.915V539.348H465.827V535.915C469.223 536.262 472.442 537.612 475.086 539.796L472.686 542.226L475.189 544.748L477.589 542.331C479.745 545.003 481.076 548.258 481.421 551.691H478.018V555.229H481.421C481.076 558.662 479.745 561.918 477.589 564.589L475.189 562.174L472.686 564.696L475.099 567.124L475.528 567.574H481.929C484.541 564.188 486.159 560.129 486.604 555.856C487.046 551.584 486.296 547.272 484.436 543.411C482.578 539.551 479.685 536.296 476.089 534.018C472.492 531.741 468.336 530.532 464.094 530.528H464.132Z" fill="#65617D"/>
<path d="M464.119 434.365C462.499 434.296 460.909 433.885 459.452 433.163C459.319 433.099 459.174 433.073 459.028 433.086C458.882 433.097 458.743 433.148 458.623 433.232C458.501 433.317 458.406 433.431 458.344 433.566C458.28 433.699 458.254 433.848 458.265 433.994L458.644 439.619C458.651 439.696 458.679 439.771 458.724 439.833C458.769 439.896 458.829 439.947 458.901 439.977C458.972 440.009 459.049 440.02 459.126 440.011C459.201 439.999 459.274 439.969 459.334 439.923L460.913 438.708C460.959 438.674 461.014 438.649 461.07 438.636C461.128 438.623 461.186 438.623 461.244 438.634C461.301 438.646 461.355 438.668 461.404 438.702C461.453 438.734 461.494 438.777 461.526 438.828L463.755 442.366C463.794 442.426 463.847 442.474 463.911 442.508C463.973 442.542 464.042 442.559 464.113 442.559C464.184 442.559 464.254 442.542 464.317 442.508C464.379 442.474 464.432 442.426 464.471 442.366L466.714 438.828C466.751 438.781 466.796 438.741 466.849 438.713C466.899 438.685 466.958 438.668 467.016 438.663C467.074 438.659 467.134 438.664 467.19 438.685C467.244 438.704 467.297 438.734 467.34 438.773L468.919 439.988C468.979 440.037 469.052 440.067 469.127 440.076C469.204 440.086 469.281 440.074 469.352 440.043C469.423 440.013 469.483 439.962 469.528 439.9C469.573 439.836 469.601 439.763 469.609 439.684L469.988 434.061C469.995 433.915 469.965 433.769 469.901 433.637C469.838 433.506 469.742 433.392 469.624 433.309C469.504 433.225 469.367 433.174 469.223 433.161C469.078 433.146 468.934 433.171 468.801 433.229C467.342 433.949 465.754 434.358 464.132 434.431L464.119 434.365Z" fill="#65617D"/>
<path d="M479.544 420.198L474.328 414.786C474.328 397.371 464.184 389.701 464.184 389.701C464.184 389.701 453.938 397.426 453.938 414.786L448.721 420.198C448.624 420.301 448.551 420.424 448.507 420.559C448.464 420.694 448.453 420.837 448.474 420.978L450.482 433.294C450.497 433.441 450.549 433.579 450.634 433.699C450.718 433.817 450.831 433.913 450.962 433.975C451.095 434.035 451.239 434.061 451.384 434.048C451.528 434.035 451.667 433.986 451.785 433.902L459.099 428.886C460.506 430.199 462.315 430.977 464.224 431.089C466.104 430.992 467.888 430.208 469.243 428.886L476.546 433.902C476.664 433.986 476.803 434.035 476.948 434.048C477.092 434.061 477.236 434.035 477.368 433.975C477.499 433.913 477.613 433.817 477.698 433.699C477.782 433.579 477.834 433.441 477.849 433.294L479.871 420.964C479.876 420.82 479.85 420.676 479.794 420.544C479.738 420.411 479.651 420.293 479.544 420.198ZM464.171 409.056C463.474 409.088 462.784 408.906 462.188 408.537C461.593 408.168 461.121 407.626 460.832 406.983C460.545 406.338 460.453 405.621 460.571 404.926C460.689 404.228 461.01 403.583 461.494 403.073C461.976 402.563 462.6 402.211 463.283 402.063C463.965 401.914 464.676 401.976 465.323 402.241C465.971 402.505 466.524 402.959 466.914 403.546C467.304 404.132 467.513 404.824 467.509 405.531C467.528 406.446 467.186 407.331 466.56 407.991C465.934 408.653 465.075 409.036 464.171 409.056Z" fill="#65617D"/>
<path d="M481.5 299.53H480.953C480.234 299.53 479.649 299.438 479.571 298.712C477.979 283.741 468.656 283.45 468.656 279.925C468.656 276.4 477.992 276.111 479.571 261.139C479.649 260.414 480.234 260.32 480.953 260.32H481.5C481.898 260.326 482.282 260.176 482.574 259.904C482.869 259.632 483.049 259.257 483.077 258.856C483.086 258.646 483.054 258.437 482.981 258.242C482.908 258.046 482.798 257.867 482.655 257.716C482.513 257.564 482.342 257.444 482.153 257.359C481.963 257.277 481.759 257.234 481.553 257.232H446.752C446.357 257.23 445.976 257.38 445.686 257.652C445.395 257.924 445.217 258.297 445.187 258.696C445.177 258.906 445.209 259.116 445.281 259.313C445.352 259.508 445.462 259.688 445.607 259.84C445.749 259.992 445.92 260.114 446.111 260.196C446.301 260.279 446.507 260.32 446.713 260.32H447.313C448.016 260.32 448.616 260.414 448.695 261.139C450.285 276.111 459.607 276.4 459.607 279.925C459.607 283.45 450.272 283.741 448.695 298.712C448.616 299.438 448.016 299.53 447.313 299.53H446.752C446.357 299.53 445.976 299.68 445.686 299.952C445.395 300.224 445.217 300.597 445.187 300.996C445.177 301.206 445.209 301.414 445.281 301.611C445.352 301.808 445.462 301.988 445.607 302.14C445.749 302.292 445.92 302.414 446.111 302.496C446.301 302.579 446.507 302.62 446.713 302.62H481.553C481.759 302.62 481.965 302.579 482.154 302.496C482.346 302.414 482.516 302.292 482.659 302.14C482.801 301.988 482.914 301.808 482.985 301.611C483.056 301.414 483.088 301.206 483.077 300.996C483.045 300.597 482.865 300.222 482.573 299.952C482.28 299.68 481.898 299.53 481.5 299.53ZM454.041 295.769C457.17 286.962 462.699 288.032 462.699 284.56V278.434C462.699 276.295 458.696 274.802 456.18 271.332C456.097 271.202 456.052 271.054 456.047 270.901C456.041 270.747 456.075 270.597 456.148 270.462C456.219 270.327 456.326 270.214 456.456 270.134C456.585 270.055 456.731 270.012 456.883 270.012H471.356C471.51 270.008 471.66 270.047 471.793 270.124C471.926 270.201 472.037 270.314 472.112 270.449C472.187 270.586 472.224 270.739 472.219 270.893C472.215 271.049 472.168 271.201 472.086 271.332C469.622 274.816 465.566 276.308 465.566 278.447V284.573C465.566 288.019 470.887 287.082 474.251 295.782C474.564 296.56 474.328 297.537 473.507 297.537H454.796C453.949 297.511 453.754 296.56 454.041 295.769Z" fill="#65617D"/>
<path opacity="0.2" d="M956.413 279.912C956.421 283.808 954.9 287.545 952.187 290.305C949.474 293.067 945.788 294.623 941.942 294.632H569.366C567.422 294.692 565.485 294.355 563.67 293.642C561.857 292.93 560.203 291.856 558.806 290.483C557.409 289.111 556.299 287.468 555.542 285.655C554.784 283.84 554.393 281.89 554.393 279.919C554.393 277.949 554.784 275.999 555.542 274.184C556.299 272.371 557.409 270.728 558.806 269.356C560.203 267.983 561.857 266.909 563.67 266.196C565.485 265.484 567.422 265.146 569.366 265.206H941.942C945.784 265.219 949.466 266.776 952.178 269.532C954.891 272.288 956.413 276.021 956.413 279.912Z" fill="#5A5773"/>
<path opacity="0.2" d="M956.413 416.119C956.419 418.049 956.049 419.961 955.324 421.744C954.6 423.529 953.535 425.153 952.191 426.52C950.848 427.889 949.251 428.976 947.492 429.719C945.733 430.461 943.847 430.848 941.942 430.853H569.366C565.588 430.739 562.001 429.138 559.369 426.391C556.736 423.644 555.264 419.967 555.264 416.138C555.264 412.311 556.736 408.634 559.369 405.888C562.001 403.141 565.588 401.539 569.366 401.425H941.942C945.782 401.442 949.459 402.998 952.17 405.751C954.881 408.503 956.408 412.231 956.413 416.119Z" fill="#5A5773"/>
<path opacity="0.2" d="M956.413 553.461C956.413 557.352 954.891 561.083 952.178 563.837C949.464 566.592 945.784 568.144 941.942 568.156H569.366C567.422 568.214 565.485 567.876 563.67 567.164C561.857 566.451 560.203 565.377 558.806 564.004C557.409 562.632 556.299 560.991 555.542 559.176C554.784 557.361 554.393 555.411 554.393 553.441C554.393 551.47 554.784 549.52 555.542 547.707C556.299 545.892 557.409 544.249 558.806 542.877C560.203 541.504 561.857 540.43 563.67 539.717C565.485 539.005 567.422 538.668 569.366 538.728H941.942C945.789 538.741 949.474 540.301 952.187 543.063C954.9 545.824 956.421 549.565 956.413 553.461Z" fill="#5A5773"/>
<path d="M881.638 265.206V294.632H569.366C567.422 294.692 565.485 294.355 563.67 293.642C561.857 292.93 560.203 291.856 558.806 290.483C557.409 289.111 556.299 287.468 555.542 285.655C554.784 283.84 554.393 281.89 554.393 279.919C554.393 277.949 554.784 275.999 555.542 274.184C556.299 272.371 557.409 270.728 558.806 269.356C560.203 267.983 561.857 266.909 563.67 266.196C565.485 265.484 567.422 265.146 569.366 265.206H881.638Z" fill="#6C63FF"/>
<path d="M937.052 401.399V430.853H569.366C565.588 430.739 562.001 429.138 559.369 426.391C556.736 423.644 555.264 419.967 555.264 416.138C555.264 412.311 556.736 408.634 559.369 405.887C562.001 403.141 565.588 401.539 569.366 401.425L937.052 401.399Z" fill="#6C63FF"/>
<path d="M800.799 538.754V568.156H569.366C567.422 568.214 565.485 567.876 563.67 567.164C561.857 566.451 560.203 565.377 558.806 564.004C557.409 562.632 556.299 560.991 555.542 559.176C554.784 557.361 554.392 555.411 554.392 553.441C554.392 551.47 554.784 549.52 555.542 547.707C556.299 545.892 557.409 544.249 558.806 542.877C560.203 541.504 561.857 540.43 563.67 539.717C565.485 539.005 567.422 538.668 569.366 538.728L800.799 538.754Z" fill="#6C63FF"/>
<path d="M1323.42 497.946C1324.14 495.979 1318.79 485.035 1318.79 484.493C1318.79 483.951 1313.25 477.891 1313.25 474.447C1313.25 471.001 1305.94 463.673 1305.94 463.673C1305.94 463.673 1296.12 459.541 1295.05 450.576C1293.98 441.612 1283.32 441.428 1283.32 441.428C1283.32 441.428 1283.32 440.609 1283.32 439.368C1283.32 436.57 1283.24 431.605 1282.01 428.873C1280.75 426.394 1278.56 424.523 1275.94 423.67C1275.94 423.67 1274.87 416.659 1272.73 414.509C1271.53 413.241 1270.68 411.687 1270.24 409.99C1269.81 408.295 1269.8 406.514 1270.24 404.819C1271.31 401.425 1268.82 392.804 1263.63 391.615C1258.44 390.428 1252.57 388.381 1252.57 388.381C1252.57 388.381 1251.98 388.501 1251.14 388.619L1250.42 388.381C1249.18 388.617 1247.93 388.776 1246.68 388.857C1245.58 388.893 1244.51 388.533 1243.65 387.841C1241.83 385.793 1227.48 382.004 1224.75 382.004C1222.01 382.004 1214.38 378.4 1214.38 378.4L1206.71 372.486C1204.56 370.823 1200.58 364.09 1200.01 363.113L1199.93 362.98C1199.28 361.448 1198.74 359.868 1198.32 358.253C1200.93 355.486 1203.16 352.379 1204.95 349.013C1205.14 348.67 1205.29 348.314 1205.47 347.956C1205.86 347.956 1206.25 347.894 1206.62 347.772L1207.1 347.586C1208.91 346.617 1210.26 344.974 1210.89 343.006C1211.03 342.61 1211.13 342.214 1211.24 341.817L1211.32 341.421C1211.32 341.144 1211.43 340.866 1211.49 340.602L1211.57 340.141C1211.57 339.863 1211.65 339.599 1211.68 339.323C1211.71 339.046 1211.68 339.019 1211.68 338.873C1211.68 338.729 1211.76 338.187 1211.81 337.857C1211.93 336.589 1212.12 335.329 1212.37 334.081C1213.44 329.209 1216.28 325.09 1218.38 320.588C1218.67 319.941 1218.96 319.268 1219.21 318.621C1219.45 317.974 1219.7 317.183 1219.91 316.443C1219.91 316.219 1220.03 315.994 1220.08 315.769C1220.22 315.228 1220.34 314.701 1220.44 314.146C1220.44 313.908 1220.54 313.671 1220.57 313.433C1220.69 312.694 1220.8 311.941 1220.86 311.189C1221.22 306.899 1220.59 302.581 1219.02 298.581C1217.72 295.214 1215.7 292.178 1214.34 288.811C1212.29 283.701 1211.73 277.919 1209.24 273.061C1205.05 264.903 1195.15 260.809 1187.08 263.884C1183.17 265.351 1179.84 268.189 1175.9 269.457C1170.69 271.159 1164.98 269.879 1159.53 269.114C1154.08 268.347 1148.03 268.281 1143.65 271.885C1138.59 276.044 1137.21 283.848 1132.46 288.415C1130.47 290.329 1128 291.558 1125.94 293.326C1124.46 294.524 1123.32 296.101 1122.64 297.893C1122.59 298.019 1122.56 298.146 1122.53 298.278C1122.47 298.428 1122.43 298.581 1122.41 298.739C1122.41 298.924 1122.34 299.095 1122.32 299.281C1122.29 299.464 1122.32 299.532 1122.32 299.65C1122.3 299.971 1122.3 300.293 1122.32 300.614C1122.34 300.916 1122.39 301.216 1122.46 301.512C1122.46 301.604 1122.46 301.683 1122.46 301.761C1122.46 301.842 1122.59 302.264 1122.68 302.515V302.659C1122.77 302.937 1122.89 303.201 1122.99 303.479C1123.1 303.756 1123.11 303.743 1123.18 303.888C1123.22 304 1123.27 304.111 1123.32 304.218C1124.01 305.549 1124.57 306.946 1124.98 308.389C1125.2 309.304 1125.14 310.268 1124.81 311.149C1124.33 312.153 1123.66 313.051 1122.84 313.789C1119.28 317.526 1116.54 321.974 1114.78 326.847C1114.57 327.4 1114.37 327.955 1114.21 328.523L1114.44 328.589C1114.95 328.748 1115.48 328.863 1116.01 328.932C1116.31 328.932 1116.61 329.011 1116.91 329.024C1118.12 329.097 1119.35 329.003 1120.54 328.748L1121.45 328.536C1122.69 328.197 1123.9 327.756 1125.07 327.216C1125.07 327.586 1125.07 327.942 1125.07 328.311C1125.07 328.681 1125.07 328.72 1125.07 328.932C1125.08 336.874 1127.29 344.656 1131.44 351.398C1135.58 358.141 1141.5 363.578 1148.54 367.099L1148.69 368.262L1148.81 369.239L1148.33 368.776C1148.33 368.776 1145.11 367.152 1142.08 371.826C1139.85 374.875 1136.82 377.234 1133.33 378.638C1133.33 378.638 1100.85 383.839 1099.6 388.158L1084.44 389.054C1084.44 389.054 1079.08 389.768 1078.55 401.069C1078.01 412.369 1075.16 413.451 1075.16 413.451C1075.16 413.451 1068.91 424.581 1069.44 430.324C1069.98 436.068 1064.5 438.906 1064.5 438.906L1063.78 449.138C1063.78 449.138 1057.89 448.24 1056.29 455.237C1054.69 462.233 1051.83 465.469 1051.83 465.469C1051.83 465.469 1042.01 473.719 1041.48 480.717L1035.41 484.493C1035.41 484.493 1021.31 481.259 1018.1 475.516L1017.11 474.578C1017.08 474.537 1017.05 474.492 1017.03 474.447C1014.92 472.439 1010.44 468.214 1011.12 469.165C1011.54 470.069 1011.64 471.087 1011.41 472.056L1010.37 470.868L1007.56 467.819C1007.56 467.819 986.586 443.408 973.234 441.691C971.818 442.066 970.521 442.804 969.471 443.838C968.419 444.869 967.65 446.159 967.236 447.58C965.541 453.415 963.767 463.079 968.175 467.832L989.271 490.658L989.818 491.067L994.408 497.035C993.639 498.91 992.987 500.731 992.439 502.383V502.54C992.321 502.896 992.218 503.253 992.113 503.583L991.997 503.939C991.892 504.284 991.8 504.614 991.697 504.931C991.592 505.248 991.592 505.326 991.526 505.523C991.461 505.722 991.526 505.748 991.436 505.866C990.926 507.662 990.613 509.048 990.444 509.828L989.258 509.459L990.418 509.959C990.414 510.021 990.414 510.083 990.418 510.145C990.383 510.271 990.358 510.398 990.339 510.527C990.692 510.685 991.057 510.858 991.436 511.002C997.68 513.762 1028.88 527.624 1030.55 529.724C1032.34 532.06 1044.12 538.872 1054.83 533.129C1065.53 527.388 1067.87 518.607 1067.87 518.607C1067.87 518.607 1078.22 504.085 1078.57 501.919C1078.92 499.754 1086.95 497.26 1086.95 497.26C1086.95 497.26 1087.67 521.301 1083.56 530.093C1079.46 538.885 1071.83 577.832 1071.83 577.832C1072.33 577.727 1072.84 577.697 1073.36 577.739L1072.9 579.983C1073.53 579.869 1074.16 579.869 1074.79 579.983C1074.22 584.406 1070.88 604.962 1070.88 604.962C1070.88 604.962 1069.8 614.296 1068.02 617.53C1066.25 620.764 1066.05 637.624 1066.05 637.624L1063.2 649.823C1063.2 649.823 1063.58 650.669 1064.28 651.936C1064.28 651.936 1067.35 658.814 1072.51 662.682C1072.27 664.594 1071.78 666.467 1071.06 668.252C1069.95 670.981 1069.46 673.928 1069.64 676.874C1069.64 676.874 1066.6 690.683 1066.97 694.645C1067.33 698.605 1065 708.282 1065 708.282L1061.79 739.504C1061.79 739.504 1059.65 766.596 1060.72 773.963C1061.79 781.33 1060.01 791.363 1060.01 791.363C1060.01 791.363 1062.14 812.725 1061.61 815.048C1061.07 817.371 1058.4 827.431 1060.01 832.99C1061.61 838.547 1060.72 853.81 1060.72 853.81C1060.72 853.81 1061.79 873.916 1063.03 880.371C1064.27 886.829 1062.68 895.092 1062.68 895.092C1062.68 895.092 1061.37 908.901 1060.89 908.901C1060.41 908.901 1055.68 918.407 1065.17 927.741C1074.66 937.075 1068.75 935.663 1068.75 935.663C1068.75 935.663 1061.26 931.9 1062.14 939.623C1062.99 946.977 1064.16 945.049 1064.27 944.903L1062.5 950.806L1063.8 950.976C1063.46 951.387 1063.12 951.809 1062.76 952.296C1061.68 953.669 1060.48 954.936 1059.17 956.086C1057.02 957.696 1056.84 961.274 1056.84 961.274C1056.84 961.274 1043.64 975.798 1031.32 983.164C1024.8 987.046 1019.26 990.319 1016.82 993.038C1014.62 995.468 1014.98 997.435 1019.55 998.967C1029.18 1002.2 1046.13 1003.81 1058.27 999.693C1065.51 997.242 1072.01 992.984 1077.19 987.31C1077.19 987.31 1084.86 983.348 1092.35 984.788C1099.85 986.226 1114.84 976.351 1114.84 976.351L1114.57 973.817L1113.78 966.477C1113.26 965.862 1112.88 965.147 1112.66 964.377C1112.44 963.606 1112.37 962.798 1112.47 962.001C1112.57 959.83 1112.36 957.657 1111.85 955.546C1111.72 954.831 1111.58 954.132 1111.46 953.459L1112.82 953.207C1112.82 953.207 1111.04 944.059 1114.26 942.25C1117.48 940.442 1116.57 916.954 1116.57 916.954C1116.57 916.954 1112.47 911.569 1110.32 910.671C1108.17 909.773 1110.14 898.643 1110.5 897.218C1110.87 895.791 1113.57 867.843 1113.57 867.843C1113.57 867.843 1112.5 859.064 1113.92 855.287C1115.34 851.511 1112.13 836.989 1112.13 836.989C1112.13 836.989 1111.06 835.195 1113.03 833.029C1115 830.864 1114.27 811.681 1114.27 811.681C1114.27 811.681 1114.1 801.991 1114.1 799.469C1114.1 796.947 1116.24 787.812 1118.2 784.761C1120.15 781.712 1118.91 772.206 1118.91 772.206L1119.02 771.481C1119.02 771.216 1119.12 770.873 1119.19 770.477L1119.34 769.514C1120.21 764.256 1121.37 759.055 1122.83 753.934C1125.14 746.397 1127.82 733.129 1127.82 733.129L1144.43 689.219L1144.61 688.703C1144.61 688.703 1152.28 703.054 1152.28 716.348C1152.28 716.348 1154.25 732.31 1153.71 736.613C1153.18 740.918 1155.33 761.196 1155.33 761.196C1155.33 761.196 1157.64 790.242 1157.64 791.562C1157.64 792.882 1160.49 815.245 1162.28 818.652C1164.07 822.059 1160.49 832.474 1159.42 833.545C1158.35 834.614 1159.78 861.004 1159.78 861.004C1159.78 861.004 1157.1 881.811 1156.57 886.088C1156.03 890.367 1153.9 906.908 1155.68 913.364C1157.47 919.819 1156.75 920.718 1156.75 920.718C1156.75 920.718 1163.18 927.319 1159.36 927.899C1157.99 928.202 1156.71 928.797 1155.59 929.644C1154.46 930.492 1153.53 931.57 1152.86 932.809C1152.18 934.049 1151.77 935.421 1151.66 936.833C1151.55 938.245 1151.74 939.664 1152.21 940.996C1154.43 947.554 1157.05 953.969 1160.04 960.205L1162.99 959.571V961.711L1163.2 972.404C1163.2 972.404 1164.51 982.636 1163.75 984.972C1163.02 989.596 1162.54 994.253 1162.29 998.927C1162.16 1000.46 1162.08 1001.49 1162.08 1001.49C1162.08 1001.49 1162.08 1010.99 1181.9 1008.09C1201.72 1005.18 1205.32 997.356 1205.32 997.356C1205.32 997.356 1205.32 996.987 1205.47 996.366C1205.76 994.557 1206.4 990.702 1206.94 988.564C1207.65 985.686 1201.22 972.721 1201.22 972.721C1201.22 972.721 1200.16 963.929 1198.37 961.949C1197.62 960.818 1197.13 959.532 1196.93 958.186C1196.77 957.46 1196.62 956.706 1196.5 955.968C1196.97 956.037 1197.41 956.118 1197.81 956.206C1197.81 956.206 1196.73 949.934 1200.85 947.954C1204.97 945.974 1203.87 941.854 1203.34 940.032C1202.8 938.211 1204.94 928.15 1204.94 928.15C1204.65 927.151 1204.64 926.091 1204.89 925.082C1205.14 924.072 1205.65 923.149 1206.38 922.407C1208.88 919.9 1210.83 902.314 1210.83 902.314L1211.19 834.481C1211.19 834.481 1212.49 822.454 1211.02 817.609C1209.54 812.764 1208.16 803.444 1210.12 800.922C1212.07 798.4 1210.3 786.743 1210.3 786.743C1210.3 786.743 1210.3 762.16 1212.97 756.061C1215.65 749.961 1214.76 711.385 1214.76 711.385L1215.48 686.076C1215.48 686.076 1221.3 680.493 1219.92 651.368C1226.14 650.973 1233.16 650.747 1234.26 651.619C1236.23 653.23 1248.89 661.493 1256.43 656.279C1258.03 655.566 1265.35 649.281 1265.35 649.281L1262.21 595.484C1264.16 598.48 1265.36 600.473 1265.36 600.473C1265.36 592.936 1286.42 568.538 1286.42 568.538C1286.42 568.538 1306.04 542.873 1310.33 539.822C1314.62 536.774 1322.99 520.613 1322.99 520.613C1324.23 517.536 1325.66 514.542 1327.28 511.649C1329.18 508.534 1322.66 499.926 1323.42 497.946ZM1277.38 516.784C1272.04 517.326 1260.78 529.711 1260.62 532.403C1260.22 534.179 1259.4 535.832 1258.24 537.222C1258.15 536.14 1258.06 535.043 1257.98 533.922C1256.68 518.08 1255.37 498.738 1255.97 496.863C1257.04 493.641 1256.68 479.106 1256.68 479.106L1256.87 478.829C1260.47 490.09 1271.65 503.373 1271.65 503.373C1271.65 503.373 1273.61 509.116 1275.94 509.286C1278.26 509.459 1277.38 516.784 1277.38 516.784Z" fill="url(#paint0_linear)"/>
<path d="M991.253 512.706C991.253 512.706 997.772 478.156 1018.63 477.985L1033.93 509.854L1023.73 516.983C1023.73 516.983 1001.63 517.683 991.253 512.706Z" fill="#65617D"/>
<path opacity="0.1" d="M1033.99 509.841L1023.78 516.97C1023.78 516.97 1008.14 517.473 997.056 514.686C995.059 514.223 993.114 513.554 991.253 512.693C991.253 512.693 991.252 512.494 991.371 512.138C991.367 512.095 991.367 512.05 991.371 512.007C992.316 507.672 993.624 503.427 995.282 499.319C995.921 497.761 996.585 496.163 997.446 494.566C1000.51 488.599 1004.81 482.684 1010.71 479.845C1012.89 478.761 1015.26 478.133 1017.68 477.998H1018.31H1018.62L1018.95 478.698L1024.16 489.469L1033.99 509.841Z" fill="black"/>
<path d="M1207.77 653.387C1207.77 653.387 1229.75 651.248 1231.68 652.846C1233.61 654.443 1246.1 662.642 1253.5 657.481C1260.89 652.319 1255.96 634.324 1255.96 633.612C1255.96 632.897 1255.26 607.431 1255.26 607.431L1242.06 589.45L1225.53 557.924L1191.76 554.543L1192.63 604.579L1192.46 630.205L1207.77 653.387Z" fill="#65617D"/>
<path opacity="0.1" d="M1207.77 653.387C1207.77 653.387 1229.75 651.248 1231.68 652.846C1233.61 654.443 1246.1 662.642 1253.5 657.481C1260.89 652.319 1255.96 634.324 1255.96 633.612C1255.96 632.897 1255.26 607.431 1255.26 607.431L1242.06 589.45L1225.53 557.924L1191.76 554.543L1192.63 604.579L1192.46 630.205L1207.77 653.387Z" fill="black"/>
<path d="M1014.29 477.061C1014.29 477.061 1012.54 498.79 999.167 499.148C999.167 499.148 995.387 496.836 990.289 492.981C978.553 484.071 959.908 466.973 965.059 451.052C972.439 428.266 1008.32 470.288 1008.32 470.288L1011.08 473.416L1014.29 477.061Z" fill="#FBBEBE"/>
<path opacity="0.1" d="M1014.29 477.061C1014.29 477.061 1012.54 498.79 999.167 499.148C999.167 499.148 995.387 496.836 990.289 492.981L989.141 491.491C991.408 492.694 993.909 493.375 996.469 493.484C998.486 493.579 1000.48 493.047 1002.19 491.956C1003.9 490.864 1005.24 489.269 1006.03 487.384C1007.44 484.596 1008.68 481.72 1009.74 478.776C1010.37 477.047 1010.8 475.255 1011.04 473.429L1014.29 477.061Z" fill="black"/>
<path d="M1008.44 516.428L1005.43 512.468L995.308 499.266L990.092 492.52C992.359 493.724 994.862 494.404 997.419 494.513C999.437 494.607 1001.44 494.072 1003.14 492.983C1004.85 491.892 1006.19 490.298 1006.98 488.414C1008.39 485.62 1009.62 482.742 1010.68 479.792C1012.35 474.987 1012.32 472.519 1011.72 471.687C1011.12 470.854 1015.46 474.908 1017.54 476.901L1017.62 476.98L1018.59 477.917L1018.95 478.645L1024.04 488.956C1024.04 488.956 1024.04 489.1 1024.04 489.391C1024.59 492.704 1026.31 513.484 1008.44 516.428Z" fill="#E7EFFD"/>
<path d="M1113.85 974.781C1113.85 974.781 1099.07 984.576 1091.69 983.138C1084.31 981.698 1076.73 985.645 1076.73 985.645C1071.65 991.274 1065.23 995.504 1058.09 997.938C1046.13 1002.03 1029.4 1000.42 1019.93 997.21C1015.43 995.693 1015.07 993.739 1017.24 991.322C1019.64 988.683 1025.15 985.383 1031.58 981.541C1043.64 974.292 1056.68 959.875 1056.68 959.875C1056.68 959.875 1056.86 956.311 1058.97 954.713C1060.26 953.569 1061.45 952.315 1062.52 950.963C1064.41 948.693 1066.19 946.33 1066.19 946.33L1109.63 947.768C1109.63 947.768 1110.36 950.937 1110.93 954.171C1111.43 956.271 1111.64 958.431 1111.54 960.588C1111.44 961.377 1111.49 962.178 1111.71 962.944C1111.92 963.709 1112.29 964.422 1112.78 965.037L1113.55 972.312L1113.85 974.781Z" fill="#65617D"/>
<path d="M1204.77 987.124C1204.25 989.251 1203.62 993.066 1203.34 994.861C1203.25 995.468 1203.19 995.851 1203.19 995.851C1203.19 995.851 1199.67 1003.68 1180.16 1006.53C1160.64 1009.38 1160.6 999.931 1160.6 999.931C1160.6 999.931 1160.68 998.914 1160.8 997.383C1161.09 992.746 1161.62 988.129 1162.37 983.547C1163.06 981.224 1161.84 971.071 1161.84 971.071L1161.63 960.509L1161.48 953.129L1193.87 949.696C1194.07 952.148 1194.42 954.588 1194.91 956.997C1195.12 958.328 1195.6 959.599 1196.32 960.734C1198.1 962.701 1199.15 971.414 1199.15 971.414C1199.15 971.414 1205.47 984.259 1204.77 987.124Z" fill="#65617D"/>
<path opacity="0.1" d="M1109.63 947.768C1109.63 947.768 1110.36 950.937 1110.93 954.171C1106.24 955.056 1085.72 958.647 1080.59 956.125C1074.79 953.275 1062.34 951.678 1062.34 951.678L1062.55 950.963C1064.44 948.693 1066.21 946.33 1066.21 946.33L1109.63 947.768Z" fill="black"/>
<path opacity="0.1" d="M1194.89 957.023C1186.69 955.611 1168.71 959.016 1161.63 960.482L1161.48 953.102L1193.87 949.696C1194.06 952.157 1194.4 954.604 1194.89 957.023Z" fill="black"/>
<path d="M1213.21 687.04L1212.52 712.124C1212.52 712.124 1213.39 750.409 1210.76 756.469C1208.12 762.529 1208.15 786.927 1208.15 786.927C1208.15 786.927 1209.91 798.492 1207.97 800.987C1206.02 803.483 1207.43 812.738 1208.85 817.544C1210.27 822.349 1209.02 834.297 1209.02 834.297L1208.67 901.628C1208.67 901.628 1206.74 919.067 1204.28 921.576C1203.56 922.309 1203.05 923.221 1202.8 924.218C1202.55 925.216 1202.56 926.262 1202.84 927.252C1202.84 927.252 1200.73 937.221 1201.25 939.002C1201.77 940.786 1202.84 944.89 1198.8 946.846C1194.76 948.799 1195.8 955.03 1195.8 955.03C1186.14 952.72 1158.69 958.99 1158.69 958.99C1155.73 952.806 1153.15 946.444 1150.95 939.94C1150.48 938.62 1150.29 937.216 1150.39 935.815C1150.5 934.416 1150.9 933.057 1151.57 931.827C1152.23 930.595 1153.15 929.522 1154.26 928.681C1155.36 927.837 1156.64 927.242 1157.99 926.937C1161.68 926.408 1155.38 919.819 1155.38 919.819C1155.38 919.819 1156.09 918.923 1154.33 912.52C1152.56 906.117 1154.68 889.72 1155.2 885.441C1155.72 881.164 1158.38 860.504 1158.38 860.504C1158.38 860.504 1156.97 834.323 1158.03 833.254C1159.08 832.184 1162.61 821.847 1160.84 818.466C1159.08 815.087 1156.27 792.829 1156.27 791.575C1156.27 790.321 1153.99 761.474 1153.99 761.474C1153.99 761.474 1151.86 741.353 1152.37 737.142C1152.88 732.931 1150.95 717.008 1150.95 717.008C1150.95 703.806 1143.4 689.588 1143.4 689.588L1143.2 690.104L1126.85 733.578C1126.85 733.578 1124.25 746.779 1121.94 754.225C1120.49 759.31 1119.34 764.477 1118.5 769.699L1118.34 770.65C1118.34 771.046 1118.22 771.389 1118.18 771.653L1118.08 772.366C1118.08 772.366 1119.3 781.804 1117.37 784.842C1115.44 787.877 1113.33 796.947 1113.33 799.442C1113.33 801.938 1113.5 811.549 1113.5 811.549C1113.5 811.549 1114.21 830.599 1112.28 832.673C1111.72 833.142 1111.33 833.783 1111.17 834.499C1111.01 835.217 1111.09 835.967 1111.39 836.633C1111.39 836.633 1114.56 851.063 1113.15 854.8C1111.74 858.535 1112.81 867.263 1112.81 867.263C1112.81 867.263 1109.99 894.869 1109.64 896.307C1109.29 897.747 1107.35 908.77 1109.46 909.668C1111.57 910.564 1115.61 915.899 1115.61 915.899C1115.61 915.899 1116.5 939.227 1113.33 940.982C1110.16 942.739 1111.92 951.848 1111.92 951.848C1111.92 951.848 1086.42 956.839 1080.63 953.987C1074.84 951.136 1062.38 949.525 1062.38 949.525L1064.12 943.664C1064.02 943.874 1062.82 945.775 1062.03 938.489C1061.15 930.831 1068.55 934.527 1068.55 934.527C1068.55 934.527 1074.35 935.954 1065.02 926.699C1055.7 917.444 1060.28 907.99 1060.8 907.99C1061.32 907.99 1062.56 894.288 1062.56 894.288C1062.56 894.288 1064.15 886.088 1062.91 879.672C1061.67 873.256 1060.59 853.321 1060.59 853.321C1060.59 853.321 1061.47 838.191 1059.89 832.66C1058.31 827.127 1060.94 817.173 1061.47 814.849C1061.99 812.526 1059.89 791.337 1059.89 791.337C1059.89 791.337 1061.65 781.369 1060.59 774.081C1059.54 766.793 1061.65 739.889 1061.65 739.889L1064.82 708.889C1064.82 708.889 1067.1 699.278 1066.75 695.358C1066.39 691.437 1069.35 677.732 1069.35 677.732C1069.19 674.809 1069.66 671.886 1070.76 669.177C1072.52 665.626 1073.24 653.864 1073.24 653.864L1090.11 614.678L1098.4 580.195L1210.09 579.126C1210.09 579.126 1210.49 582.109 1211.17 587.562C1211.85 593.014 1212.8 601.068 1213.86 611.022C1214.84 620.052 1215.91 630.692 1216.95 642.522C1220.25 680.267 1213.21 687.04 1213.21 687.04Z" fill="#3F3D56"/>
<path d="M1202.84 375.205L1176.76 403.352C1176.76 403.352 1143.36 389.807 1146.87 385.186C1148.17 383.391 1148.01 377.74 1147.23 371.496C1145.93 361.634 1143.32 350.281 1143.32 350.281C1143.32 350.281 1201.71 340.656 1196.78 350.624C1194.98 354.267 1195.29 358.544 1196.41 362.506C1197.87 367.062 1200.04 371.35 1202.84 375.205Z" fill="#FBBEBE"/>
<path opacity="0.1" d="M1196.86 350.624C1195.06 354.267 1194.25 354.584 1195.32 358.544C1187.69 366.835 1177.98 375.904 1165.9 375.904C1159.43 375.908 1153.05 374.38 1147.27 371.444C1145.97 361.581 1143.36 350.226 1143.36 350.226C1143.36 350.226 1201.78 340.656 1196.86 350.624Z" fill="black"/>
<path d="M1207.77 332.457C1207.77 343.699 1203.36 354.483 1195.51 362.433C1187.66 370.383 1177.01 374.849 1165.9 374.849C1154.8 374.849 1144.15 370.383 1136.3 362.433C1128.45 354.483 1124.04 343.699 1124.04 332.457C1124.04 332.258 1124.04 332.061 1124.04 331.849C1124.29 320.729 1128.86 310.154 1136.74 302.408C1144.63 294.663 1155.21 290.367 1166.19 290.446C1177.18 290.526 1187.69 294.976 1195.47 302.834C1203.25 310.694 1207.66 321.333 1207.76 332.457H1207.77Z" fill="#FBBEBE"/>
<path opacity="0.1" d="M1213.82 612.091C1208.28 612.091 1189.82 612.289 1169.19 612.619H1168.93L1162.12 612.737H1161.9C1137.43 613.135 1113.32 608.29 1103.64 609.212C1083.07 611.168 1111.02 589.979 1111.02 589.979C1126.38 593.753 1142.17 595.366 1157.96 594.769L1163.88 594.467C1182.58 593.397 1201.37 591.616 1211.19 588.631C1211.84 594.136 1212.76 602.136 1213.82 612.091Z" fill="black"/>
<path d="M1213.82 611.022C1208.28 611.022 1189.82 611.221 1169.19 611.551H1168.93L1162.12 611.669H1161.9C1137.43 612.064 1113.32 607.219 1103.64 608.144C1083.07 610.097 1111.02 588.908 1111.02 588.908C1126.38 592.682 1142.17 594.301 1157.96 593.714L1163.88 593.397C1182.58 592.328 1201.37 590.545 1211.19 587.562C1211.84 593.067 1212.76 601.067 1213.82 611.022Z" fill="#E3A79F"/>
<path opacity="0.1" d="M1154.65 386.969L1122.29 402.284L1097.31 597.82C1097.31 597.82 1112.08 591.047 1120.53 595.324C1128.98 599.603 1155 595.681 1155 595.681C1155 595.681 1174 594.612 1176.8 596.751C1179.61 598.889 1212.69 587.839 1212.69 587.839C1212.69 587.839 1218.67 574.307 1214.09 572.168C1209.52 570.029 1215.5 549.025 1215.5 549.025L1212.69 407.973L1207.06 389.808L1191.94 380.566L1176.45 393.029L1169.07 394.098L1154.65 386.969Z" fill="black"/>
<path d="M1154.65 384.829L1122.29 400.144L1097.31 595.681C1097.31 595.681 1112.08 588.908 1120.57 593.239C1129.06 597.569 1155.04 593.596 1155.04 593.596C1155.04 593.596 1174.04 592.525 1176.84 594.664C1179.65 596.804 1212.72 585.766 1212.72 585.766C1212.72 585.766 1218.71 572.221 1214.13 570.096C1209.56 567.97 1215.54 546.938 1215.54 546.938L1212.72 405.888L1207.1 387.721L1191.98 378.479L1176.49 390.942L1169.11 392.013L1154.65 384.829Z" fill="#E7EFFD"/>
<path opacity="0.1" d="M1154.12 393.888C1154.12 393.888 1163.44 405.094 1163.24 407.419C1163.05 409.742 1162.71 415.248 1162.71 415.248L1155.77 429.704C1155.77 429.704 1151.86 447.685 1151.86 451.435C1151.86 455.185 1145.68 487.622 1145.68 487.622L1138.29 537.486L1128.97 602.851L1138.47 619.405L1149.72 609.794L1164.68 493.324L1167.83 470.354C1167.83 470.354 1171.18 429.031 1171.18 424.754C1171.18 420.475 1169.24 409.266 1169.24 409.266C1169.24 409.266 1171.54 398.573 1180.98 396.064C1190.42 393.556 1180.27 395.537 1180.27 395.537L1174.82 391.088L1170.11 393.016C1170.11 393.016 1156.93 388.923 1154.12 393.888Z" fill="black"/>
<path d="M1153.06 392.843C1153.06 392.843 1162.38 404.052 1162.19 406.375C1161.99 408.7 1161.65 414.205 1161.65 414.205L1154.63 428.635C1154.63 428.635 1150.71 446.616 1150.71 450.364C1150.71 454.114 1144.56 486.513 1144.56 486.513L1137.17 536.376L1127.84 601.741L1137.41 618.323L1148.67 608.712L1163.59 492.216L1166.76 469.244C1166.76 469.244 1170.1 427.923 1170.1 423.644C1170.1 419.367 1168.16 408.158 1168.16 408.158C1168.16 408.158 1170.45 397.465 1179.89 394.956C1189.33 392.448 1179.19 394.414 1179.19 394.414L1173.74 389.965L1168.99 391.919C1168.99 391.919 1155.88 387.854 1153.06 392.843Z" fill="#3F3D56"/>
<path opacity="0.1" d="M1146.91 374.084C1146.91 374.084 1145.5 375.153 1145.15 382.281C1144.79 389.412 1139.93 405.424 1139.93 405.424C1139.93 405.424 1158.18 392.607 1167.31 394.032L1146.91 374.084Z" fill="black"/>
<path d="M1146.91 371.997C1146.91 371.997 1145.5 373.068 1145.15 380.196C1144.79 387.325 1139.93 403.353 1139.93 403.353C1139.93 403.353 1158.18 390.52 1167.31 391.945L1146.91 371.997Z" fill="#E7EFFD"/>
<path opacity="0.1" d="M1196.86 368.446L1168.02 394.084C1168.02 394.084 1192.29 408.687 1195.4 412.251C1198.5 415.816 1201.73 377.344 1201.73 377.344L1196.86 368.446Z" fill="black"/>
<path d="M1197.91 366.308L1169.07 391.945C1169.07 391.945 1193.34 406.548 1196.45 410.112C1199.57 413.676 1202.79 375.205 1202.79 375.205L1197.91 366.308Z" fill="#E7EFFD"/>
<path opacity="0.1" d="M1147.95 374.084C1147.95 374.084 1144.78 372.486 1141.79 377.119C1139.6 380.142 1136.62 382.482 1133.18 383.879C1133.18 383.879 1101.17 389.041 1099.94 393.319L1084.99 394.218C1084.99 394.218 1079.71 394.93 1079.18 406.099C1078.66 417.267 1075.85 418.39 1075.85 418.39C1075.85 418.39 1069.72 429.533 1070.23 435.222C1070.74 440.912 1065.48 443.777 1065.48 443.777L1087.46 501.655C1087.46 501.655 1088.17 525.512 1084.13 534.239C1080.08 542.965 1072.51 581.607 1072.51 581.607C1072.51 581.607 1075.68 580.894 1075.51 583.034C1075.34 585.173 1071.6 608.5 1071.6 608.5C1071.6 608.5 1070.54 617.742 1068.78 620.963C1067.02 624.184 1066.85 640.911 1066.85 640.911L1064.03 653.031C1064.03 653.031 1070.71 668.161 1080.98 666.023C1091.26 663.884 1109.67 623.459 1109.67 623.459L1121.4 579.891L1130.53 536.8L1133.14 507.597L1137.36 442.906L1143.52 400.171C1143.52 400.171 1150.43 377.172 1147.95 374.084Z" fill="black"/>
<path d="M1146.91 371.997C1146.91 371.997 1143.74 370.399 1140.75 375.034C1138.56 378.055 1135.57 380.397 1132.13 381.794C1132.13 381.794 1100.12 386.969 1098.9 391.232L1083.94 392.131C1083.94 392.131 1078.73 392.843 1078.14 404.013C1077.55 415.182 1074.8 416.329 1074.8 416.329C1074.8 416.329 1068.65 427.381 1069.17 433.071C1069.69 438.76 1064.42 441.625 1064.42 441.625L1086.41 499.504C1086.41 499.504 1087.11 523.36 1083.07 532.086C1079.03 540.813 1071.45 579.456 1071.45 579.456C1071.45 579.456 1074.62 578.757 1074.45 580.881C1074.28 583.007 1070.54 606.349 1070.54 606.349C1070.54 606.349 1069.48 615.589 1067.72 618.824C1065.96 622.06 1065.79 638.761 1065.79 638.761L1062.98 650.879C1062.98 650.879 1069.65 666.008 1079.86 663.871C1090.07 661.731 1108.55 621.306 1108.55 621.306L1120.28 577.739L1129.41 534.634L1132.02 505.431L1136.24 440.742L1142.39 398.005C1142.39 398.005 1149.37 375.034 1146.91 371.997Z" fill="#65617D"/>
<path opacity="0.1" d="M1033.99 509.841L1023.78 516.97C1023.78 516.97 1008.14 517.473 997.056 514.686L991.371 512.138L990.236 511.636L991.41 512.007C997.277 513.775 1001.84 513.736 1005.48 512.507C1019.91 507.597 1018.32 483.464 1017.76 477.998C1017.76 477.456 1017.67 477.1 1017.64 476.954C1017.66 477.001 1017.69 477.046 1017.72 477.087C1017.92 477.415 1018.14 477.728 1018.39 478.024C1018.58 478.261 1018.8 478.499 1019.02 478.724L1024.12 489.034C1024.12 489.034 1024.12 489.179 1024.12 489.469L1033.99 509.841Z" fill="black"/>
<path d="M1069.34 440.213L1064.42 441.638L1063.72 451.791C1063.72 451.791 1057.92 450.893 1056.33 457.838C1054.74 464.781 1051.93 467.989 1051.93 467.989C1051.93 467.989 1042.26 476.189 1041.74 483.134L1035.82 486.869C1035.82 486.869 1021.92 483.661 1018.76 477.972C1018.76 477.972 1025.09 523.915 991.384 512.693C991.384 512.693 1029.19 529.433 1030.96 531.743C1032.71 534.053 1044.32 540.826 1054.88 535.137C1065.44 529.446 1067.72 520.707 1067.72 520.707C1067.72 520.707 1077.92 506.277 1078.27 504.138C1078.62 501.998 1086.54 499.518 1086.54 499.518L1101.53 462.537L1069.34 440.213Z" fill="#65617D"/>
<path opacity="0.1" d="M1192.82 389.808L1197.91 366.308C1197.91 366.308 1200.21 373.964 1202.49 375.747L1210.05 381.621C1210.05 381.621 1217.61 385.186 1220.25 385.186C1222.88 385.186 1237.13 388.923 1238.89 390.876C1240.65 392.83 1247.69 391.418 1247.69 391.418C1247.69 391.418 1253.5 393.372 1258.59 394.626C1263.69 395.881 1266.16 404.408 1265.11 407.828C1264.69 409.51 1264.69 411.274 1265.12 412.956C1265.55 414.636 1266.4 416.179 1267.58 417.439C1269.69 419.579 1270.75 426.522 1270.75 426.522C1273.33 427.383 1275.47 429.237 1276.72 431.684C1278.48 435.646 1278.02 444.16 1278.02 444.16L1251.81 481.549C1251.81 481.549 1252.17 495.979 1251.11 499.188C1250.05 502.396 1254.8 556.879 1254.8 556.879L1260.25 650.616C1260.25 650.616 1253.04 656.847 1251.46 657.559C1249.88 658.272 1248.29 624.436 1248.29 623.234C1248.29 622.032 1207.59 561.554 1207.59 561.554C1207.59 561.554 1202.14 552.655 1202.14 550.688C1202.14 548.721 1197.04 530.74 1197.04 530.74L1189.29 496.019L1192.82 389.808Z" fill="black"/>
<path d="M1280.12 442.088C1280.12 443.316 1280.12 444.121 1280.12 444.121L1253.93 481.495C1253.93 481.495 1254.28 495.925 1253.22 499.133C1252.61 500.982 1253.95 520.152 1255.19 535.902C1256.08 547.255 1256.91 556.827 1256.91 556.827L1259.23 596.566L1262.36 650.509C1262.36 650.509 1255.15 656.742 1253.57 657.454C1252 658.167 1250.41 624.331 1250.41 623.129C1250.41 621.927 1209.7 561.554 1209.7 561.554C1209.7 561.554 1204.25 552.642 1204.25 550.688C1204.25 548.734 1199.15 530.74 1199.15 530.74L1191.41 496.019L1194.93 389.873L1197.91 366.374C1197.91 366.374 1202.31 374.031 1204.6 375.799C1206.9 377.569 1212.16 381.689 1212.16 381.689C1212.16 381.689 1219.73 385.253 1222.36 385.253C1224.99 385.253 1239.25 388.988 1241 390.942C1242.77 392.896 1249.81 391.484 1249.81 391.484C1249.81 391.484 1255.61 393.437 1260.71 394.692C1265.81 395.946 1268.27 404.489 1267.23 407.894C1266.8 409.577 1266.8 411.346 1267.23 413.027C1267.66 414.711 1268.51 416.256 1269.69 417.518C1271.79 419.657 1272.85 426.601 1272.85 426.601C1275.44 427.461 1277.59 429.321 1278.83 431.777C1280.04 434.365 1280.16 439.302 1280.12 442.088Z" fill="#65617D"/>
<path opacity="0.1" d="M1065.13 916.598C1066 916.598 1102.94 918.025 1102.24 924.072C1101.53 930.117 1065.13 916.598 1065.13 916.598Z" fill="black"/>
<path opacity="0.1" d="M1073.39 926.751C1073.39 926.751 1098.17 930.844 1091.65 934.579C1085.13 938.316 1073.39 926.751 1073.39 926.751Z" fill="black"/>
<path opacity="0.1" d="M1165.55 912.73C1165.55 912.73 1206.71 916.294 1200.56 920.916C1194.4 925.536 1179.8 926.262 1179.1 926.447C1178.39 926.633 1165.55 912.73 1165.55 912.73Z" fill="black"/>
<path opacity="0.1" d="M1160.62 931.015C1160.62 931.015 1183.49 934.977 1184.2 939.385C1184.9 943.795 1160.62 931.015 1160.62 931.015Z" fill="black"/>
<path opacity="0.1" d="M1173.3 823.814C1173.3 823.814 1194.16 828.805 1195.46 832.184L1173.3 823.814Z" fill="black"/>
<path opacity="0.1" d="M1092.56 839.129C1092.56 839.129 1081.66 842.337 1092.21 848.74C1102.76 855.143 1092.56 839.129 1092.56 839.129Z" fill="black"/>
<path opacity="0.1" d="M1140.93 667.99C1142.16 667.99 1161.33 661.574 1168.02 664.426C1172.8 666.235 1177.86 667.199 1182.97 667.276L1140.93 667.99Z" fill="black"/>
<path opacity="0.1" d="M1143.4 688.294L1143.2 690.062L1126.85 733.538C1126.85 733.538 1124.25 746.74 1121.94 754.186C1120.49 759.271 1119.34 764.438 1118.5 769.658L1133.01 678.565L1143.4 688.294Z" fill="black"/>
<path d="M1168.93 611.551L1162.12 611.669H1161.9L1157.91 593.714L1163.83 593.397L1168.93 611.551Z" fill="#3F3D56"/>
<path d="M1251.91 589.806L1247.54 593.463L1232.92 605.648C1232.92 605.648 1193.34 627.023 1182.44 606.719C1172.83 588.829 1217.64 576.063 1228.5 573.278L1230.81 572.71L1251.91 589.806Z" fill="#FBBEBE"/>
<path opacity="0.1" d="M1082.89 414.745C1082.89 414.745 1090.63 418.311 1092.39 423.288C1094.15 428.266 1082.89 414.745 1082.89 414.745Z" fill="black"/>
<path opacity="0.1" d="M1058.97 468.175C1058.97 468.175 1047.71 482.063 1052.29 487.397C1056.86 492.73 1058.97 468.175 1058.97 468.175Z" fill="black"/>
<path opacity="0.1" d="M1260.17 422.575C1260.17 422.575 1249.62 423.644 1249.27 432.912L1260.17 422.575Z" fill="black"/>
<path opacity="0.1" d="M1162.38 568.617C1163.44 567.548 1187.72 531.214 1193.34 534.423L1162.38 568.617Z" fill="black"/>
<path opacity="0.1" d="M1207.77 332.457C1207.78 339.441 1206.08 346.317 1202.82 352.471H1202.5C1199.9 351.904 1198.47 348.775 1196.44 346.808C1195.19 345.614 1193.6 344.843 1191.9 344.607C1190.2 344.371 1188.47 344.678 1186.95 345.488C1185.41 346.42 1184.15 347.77 1183.33 349.382C1182.51 350.997 1182.14 352.812 1182.28 354.623C1180.98 348.919 1181.37 342.859 1180.05 337.144C1178.73 331.427 1174.83 325.645 1169.42 325.553C1167.1 325.553 1164.39 326.423 1162.71 324.655C1161.69 323.597 1161.48 321.921 1160.73 320.627C1156.82 314.318 1145.15 317.513 1140.36 320.747C1135.57 323.982 1130.01 329.157 1124.05 331.928C1124.31 320.807 1128.87 310.232 1136.75 302.487C1144.64 294.741 1155.22 290.446 1166.21 290.526C1177.19 290.605 1187.71 295.054 1195.48 302.914C1203.26 310.772 1207.67 321.411 1207.77 332.536V332.457Z" fill="black"/>
<path d="M1160.73 319.48C1161.48 320.8 1161.69 322.45 1162.71 323.506C1164.38 325.276 1167.09 324.364 1169.42 324.404C1174.81 324.496 1178.75 330.278 1180.05 335.995C1181.35 341.712 1180.94 347.772 1182.28 353.489C1182.14 351.676 1182.5 349.861 1183.33 348.246C1184.15 346.632 1185.4 345.282 1186.95 344.352C1188.47 343.548 1190.2 343.242 1191.9 343.478C1193.6 343.714 1195.19 344.481 1196.44 345.672C1198.47 347.639 1199.86 350.768 1202.5 351.323C1205.15 351.878 1207.72 349.317 1208.67 346.491C1209.62 343.666 1209.57 340.549 1210.19 337.619C1211.38 332.061 1214.97 327.507 1216.95 322.225C1219.31 315.798 1219.24 308.712 1216.77 302.329C1215.46 298.99 1213.48 295.979 1212.15 292.639C1210.13 287.556 1209.54 281.826 1207.13 276.994C1203 268.902 1193.23 264.848 1185.23 267.899C1181.39 269.35 1178.08 272.162 1174.2 273.43C1168.98 275.119 1163.44 273.852 1158.07 273.087C1152.7 272.322 1146.74 272.256 1142.42 275.847C1137.44 279.966 1136.09 287.729 1131.4 292.244C1129.43 294.145 1127 295.358 1124.88 297.115C1122.77 298.87 1120.97 301.499 1121.27 304.349C1121.57 308.033 1125.18 311.386 1123.88 314.806C1123.41 315.809 1122.74 316.707 1121.93 317.446C1118.01 321.604 1115.09 326.624 1113.41 332.114C1122.83 335.097 1132.97 324.589 1140.37 319.624C1145.15 316.364 1156.87 313.169 1160.73 319.48Z" fill="#3F3D56"/>
<path opacity="0.1" d="M1251.91 589.806L1247.54 593.462C1243.63 586.954 1227.82 573.951 1227.82 573.951L1228.5 573.278L1230.81 572.71L1251.91 589.806Z" fill="black"/>
<path d="M1256.17 583.217C1256.17 583.217 1254.6 587.179 1252.97 590.612C1251.34 594.044 1249.57 597.212 1249.49 594.572C1249.31 589.581 1228.92 572.841 1228.92 572.841L1231.68 570.122L1234.89 566.967L1256.17 583.217Z" fill="#E7EFFD"/>
<path opacity="0.1" d="M1256.83 556.853L1259.15 596.592C1253.68 587.997 1238.68 565.937 1229.05 566.65L1252.44 539.401C1253.41 538.307 1254.3 537.147 1255.11 535.928C1256 547.283 1256.83 556.853 1256.83 556.853Z" fill="black"/>
<path opacity="0.1" d="M1256.17 583.218C1256.17 583.218 1254.6 587.179 1252.97 590.612C1246.85 582.096 1238.41 572.037 1231.68 570.162L1234.89 567.006L1256.17 583.218Z" fill="black"/>
<path d="M1273.72 439.144L1280.05 444.134C1280.05 444.134 1290.6 444.306 1291.66 453.216C1292.71 462.128 1302.39 466.208 1302.39 466.208C1302.39 466.208 1309.6 473.509 1309.6 476.901C1309.6 480.295 1315.05 486.342 1315.05 486.869C1315.05 487.398 1320.27 498.263 1319.63 500.23C1318.99 502.197 1325.25 510.792 1323.32 513.934C1321.73 516.813 1320.32 519.79 1319.09 522.844C1319.09 522.844 1310.83 538.872 1306.61 541.896C1302.4 544.919 1283.04 570.4 1283.04 570.4C1283.04 570.4 1262.28 594.612 1262.28 602.084C1262.28 602.084 1242.06 567.891 1230.1 568.774L1253.56 541.54C1253.56 541.54 1257.6 537.091 1257.79 534.423C1257.97 531.756 1269.04 519.466 1274.32 518.924C1274.32 518.924 1275.19 511.622 1272.91 511.452C1270.63 511.279 1268.68 505.564 1268.68 505.564C1268.68 505.564 1253.21 487.081 1253.04 475.291C1252.87 463.501 1273.72 439.144 1273.72 439.144Z" fill="#65617D"/>
<path opacity="0.1" d="M1283.04 456.055C1283.04 456.055 1268.27 467.106 1271.44 470.658C1274.6 474.209 1283.04 456.055 1283.04 456.055Z" fill="black"/>
<path opacity="0.1" d="M1283.74 501.655C1283.74 501.655 1311.13 492.745 1313.99 501.655H1283.74Z" fill="black"/>
<path opacity="0.1" d="M1113.85 974.781C1113.85 974.781 1099.07 984.576 1091.69 983.138C1084.31 981.698 1076.73 985.645 1076.73 985.645C1071.65 991.274 1065.23 995.504 1058.09 997.938C1046.13 1002.03 1029.4 1000.42 1019.93 997.21C1015.43 995.693 1015.07 993.739 1017.24 991.322C1027.55 993.409 1050.63 997.555 1056.86 994.544C1064.95 990.584 1076.55 982.081 1076.55 982.081C1076.55 982.081 1091.69 980.061 1093.8 980.061C1095.3 980.061 1106.98 975.177 1113.57 972.378L1113.85 974.781Z" fill="black"/>
<path opacity="0.1" d="M1203.34 994.861C1203.25 995.468 1203.19 995.851 1203.19 995.851C1203.19 995.851 1199.67 1003.68 1180.15 1006.53C1160.64 1009.38 1160.6 999.931 1160.6 999.931C1160.6 999.931 1160.68 998.914 1160.8 997.383C1167 999.771 1180.55 1002.43 1203.34 994.861Z" fill="black"/>
<path opacity="0.1" d="M1090.19 453.918C1090.19 453.918 1090.19 494.526 1086.76 498.541C1083.33 502.553 1090.19 453.918 1090.19 453.918Z" fill="black"/>
<path opacity="0.1" d="M1248.75 467.012L1253.85 481.536C1253.85 481.536 1255.87 467.277 1248.75 467.012Z" fill="black"/>
<g opacity="0.1">
<path opacity="0.1" d="M1124.38 311.346C1125.68 308.007 1122.3 304.746 1121.86 301.143C1121.41 302.151 1121.22 303.259 1121.3 304.364C1121.52 307.069 1123.49 309.578 1124.01 312.074C1124.15 311.841 1124.27 311.599 1124.38 311.346Z" fill="black"/>
<path opacity="0.1" d="M1182.75 349.713C1181.45 344.088 1181.86 338.147 1180.58 332.549C1179.31 326.952 1175.37 321.051 1169.95 320.957C1167.62 320.957 1164.91 321.829 1163.23 320.059C1162.21 319.004 1162.02 317.327 1161.25 316.034C1157.34 309.722 1145.68 312.917 1140.88 316.152C1133.69 320.997 1123.8 331.124 1114.58 328.827C1114.14 329.909 1113.72 330.992 1113.38 332.114C1122.8 335.097 1132.94 324.589 1140.35 319.624C1145.15 316.39 1156.87 313.195 1160.73 319.506C1161.48 320.826 1161.69 322.476 1162.71 323.532C1164.38 325.302 1167.09 324.391 1169.42 324.43C1174.81 324.522 1178.75 330.304 1180.05 336.021C1181.35 341.738 1180.94 347.798 1182.28 353.515C1182.2 352.229 1182.35 350.937 1182.75 349.713Z" fill="black"/>
<path opacity="0.1" d="M1209.23 343.032C1208.27 345.857 1205.76 348.445 1203.05 347.864C1200.34 347.282 1199.02 344.181 1197 342.213C1195.75 341.022 1194.16 340.255 1192.46 340.019C1190.76 339.783 1189.03 340.088 1187.51 340.893C1186.04 341.776 1184.83 343.041 1184.01 344.558C1183.19 346.075 1182.79 347.785 1182.84 349.514C1183.54 347.339 1185.01 345.505 1186.97 344.365C1188.49 343.561 1190.23 343.255 1191.93 343.491C1193.63 343.727 1195.22 344.494 1196.47 345.685C1198.5 347.652 1199.88 350.781 1202.53 351.336C1205.18 351.891 1207.74 349.33 1208.7 346.504C1209.2 344.838 1209.53 343.12 1209.66 341.382C1209.55 341.941 1209.41 342.49 1209.23 343.032Z" fill="black"/>
<path opacity="0.1" d="M1217.47 318.766C1215.49 324.048 1211.92 328.602 1210.72 334.159C1210.48 335.283 1210.34 336.43 1210.21 337.579C1211.41 332.048 1214.97 327.494 1216.95 322.238C1217.82 319.861 1218.37 317.374 1218.58 314.845C1218.3 316.178 1217.93 317.489 1217.47 318.766Z" fill="black"/>
</g>
<defs>
<linearGradient id="paint0_linear" x1="1146.46" y1="1008.67" x2="1146.46" y2="262.829" gradientUnits="userSpaceOnUse">
<stop stop-color="#808080" stop-opacity="0.25"/>
<stop offset="0.54" stop-color="#808080" stop-opacity="0.12"/>
<stop offset="1" stop-color="#808080" stop-opacity="0.1"/>
</linearGradient>
</defs>
</svg>
